<svg width="100" height="50" viewBox="0 0 200 100" xmlns="http://www.w3.org/2000/svg" class="logo-main page-header-logo__image"><path d="M66.408 91.736c0-.725.557-1.2 1.465-1.2.716 0 1.227.231 1.662.662l.535-.749c-.467-.512-1.307-.849-2.25-.849-1.554 0-2.46.957-2.46 2.136 0 2.704 3.985 2.065 3.985 4.056 0 .83-.741 1.274-1.598 1.274-.687 0-1.536-.34-2.017-.971l-.573.677c.406.77 1.576 1.228 2.579 1.228 1.478 0 2.661-.876 2.661-2.217 0-2.791-3.989-2.031-3.989-4.047zM76.7 94.218h3.265v-.932H76.7v-2.637h3.614v-.932h-4.606v8.163h4.722v-.933H76.7zM88.379 89.67l-3.512 8.21h1.004l1.036-2.472h3.72l1.049 2.472h1.062l-3.51-8.21h-.849zm-1.076 4.806l1.47-3.489 1.469 3.489h-2.939zM97.641 97.88h.994v-3.404h3.263v-.934h-3.263v-2.893h3.617v-.932h-4.611zM111.032 89.6c-2.424 0-4.162 1.828-4.162 4.201 0 2.483 1.796 4.199 4.162 4.199 2.372 0 4.168-1.775 4.168-4.199.001-2.486-1.796-4.201-4.168-4.201zm0 7.466c-1.75 0-3.111-1.415-3.111-3.265 0-1.901 1.339-3.265 3.111-3.265 1.754 0 3.117 1.364 3.117 3.265 0 1.843-1.246 3.265-3.117 3.265zM124.035 89.6c-2.428 0-4.167 1.828-4.167 4.201 0 2.483 1.796 4.199 4.167 4.199 2.366 0 4.164-1.775 4.164-4.199.001-2.486-1.798-4.201-4.164-4.201zm0 7.466c-1.75 0-3.118-1.415-3.118-3.265 0-1.901 1.342-3.265 3.118-3.265 1.748 0 3.112 1.364 3.112 3.265 0 1.843-1.246 3.265-3.112 3.265zM135.741 89.683c-.668 0-1.555.035-2.092.035h-.143v8.163h.129c.688 0 1.46.023 2.01.023 3.114 0 4.677-1.889 4.677-4.212.001-2.133-1.317-4.009-4.581-4.009zm-.063 7.288c-.139 0-.639-.012-1.177-.024v-6.298c.409-.013.725-.035 1.214-.035 2.368 0 3.56 1.305 3.56 3.077 0 1.904-1.26 3.28-3.597 3.28zM6.783 81.151h3.586v-7.823h7.08v-3.323h-7.08v-4.849h7.555v-3.324H6.783zM38.113 61.584c-5.464 0-9.989 4.364-9.989 9.908 0 5.546 4.524 9.91 9.989 9.91 5.465 0 9.989-4.364 9.989-9.91.001-5.544-4.523-9.908-9.989-9.908zm0 16.308c-3.551 0-6.374-2.845-6.374-6.4 0-3.55 2.823-6.396 6.374-6.396a6.376 6.376 0 0 1 6.399 6.396 6.376 6.376 0 0 1-6.399 6.4zM66.523 70.028l-1.558-.519c-1.565-.538-2.403-1.055-2.403-2.312 0-1.131.851-2.13 2.141-2.184.83-.054 1.869.33 2.956 1.31l2.158-2.418c-1.568-1.563-3.405-2.267-5.114-2.323-3.126-.075-5.835 2.146-5.835 5.75 0 2.982 2.452 4.306 4.437 5.003l1.55.571c1.315.438 2.626 1.232 2.626 2.737 0 1.23-1.12 2.348-2.764 2.355-1.217.029-2.722-.55-4.268-2.129l-2.158 2.549c2.026 2.01 4.332 2.909 6.43 2.956 3.423.047 6.24-2.241 6.24-5.732 0-3.23-2.474-5.041-4.438-5.614zM81.723 81.151h3.589v-7.823h7.078v-3.323h-7.078v-4.849h7.555v-3.324H81.723zM123.049 71.493c0-5.544-4.526-9.908-9.992-9.908-5.463 0-9.985 4.364-9.985 9.908 0 5.546 4.522 9.91 9.985 9.91 5.466 0 9.992-4.364 9.992-9.91zm-16.365-.001c0-3.55 2.822-6.396 6.372-6.396a6.377 6.377 0 0 1 6.403 6.396c0 3.555-2.849 6.4-6.403 6.4-3.549 0-6.372-2.846-6.372-6.4zM147.835 67.679c0-3.388-1.962-5.874-6.034-5.874h-7.181v19.346h3.562V73.55h1.37l4.956 7.601h4.201l-5.116-7.814c2.849-.643 4.242-2.838 4.242-5.658zm-9.624 2.387V65.29h3.462c1.443 0 2.572 1.05 2.572 2.389 0 1.308-.838 2.387-2.597 2.387h-3.437zM163.9 72.96h7.45v-3.323h-7.45v-4.481h7.713v-3.324h-11.302v19.319h11.565v-3.323H163.9zM186.278 77.776V61.832h-3.615v19.319h10.812v-3.375z"></path><g><path d="M98.74 6.84v2.726h-.791v.845h6.997v-.845h-.794V6.84h1.259l-3.751-3.513V2h-.428v1.327L97.488 6.84h1.252zm3.186 2.726h-.955V8.89a.478.478 0 0 1 .956 0v.676zm1.376 0h-.955V8.89a.898.898 0 0 0-.897-.901.903.903 0 0 0-.903.901v.675h-.955V6.84h3.711v2.726zm-1.853-5.274l1.818 1.704h-3.634l1.816-1.704zM109.941 38.437c-2.558 5.33-1.987 7.117-.974 8.898l.324.573.388-.536a32.97 32.97 0 0 0 2.798-5.31c.77 1.535 2.069 2.449 3.457 3.296l.721.44-.077-.84c-.232-2.477-.897-6.848-2.763-9.053 2.157-3.062.928-6.889.263-8.458l-.137-.317-.342.068c-4.427.91-7.686 4.085-10.892 10.622-2.233 4.544-5.899 3.884-6.974 3.574-1.621-.469-2.883-1.586-3.052-2.621a12.49 12.49 0 0 0 1.726.122c.465 0 .946-.026 1.44-.071 2.827-.268 5.266-1.858 6.069-3.959.551-1.438.249-2.884-.845-4.073-1.465-1.589-3.491-2.244-5.711-1.851-2.029.365-3.778 1.507-4.686 2.65-.594-2.293-.467-5.088-.236-6.631l.2-1.335-.927.98c-1.949 2.065-2.421 3.538-2.47 5.011-.601-.564-1.441-1.174-2.525-1.835l-.689-.424.043.808c.072 1.294.568 5.73 3.801 8.511.342.292.708.55 1.084.784-.296 2.636 1.637 5.871 4.621 7.633 1.027.607 2.901 1.442 5.444 1.442 2.165 0 4.818-.612 7.835-2.491a9.02 9.02 0 0 1 .135-1.1c-4.63 3.072-9.277 3.609-12.981 1.421-2.798-1.653-4.245-4.43-4.218-6.446a9.484 9.484 0 0 0 2.043.702c.049 1.471 1.552 2.977 3.667 3.588a6.41 6.41 0 0 0 3.795-.062c.006.089.006.181.026.264.076.324.189.625.432.876a.1.1 0 0 0 .116.015.09.09 0 0 0 .029-.125l-.007-.014c-.13-.22-.17-.527-.165-.793.004-.139.026-.27.061-.387.001-.01.009-.018.013-.028.388-.172.774-.39 1.148-.656.014.179.039.359.077.532.122.441.314.894.697 1.188a.083.083 0 0 0 .105-.006.08.08 0 0 0 .007-.118l-.004-.004c-.27-.3-.374-.726-.408-1.129a2.805 2.805 0 0 1 .017-.608c.016-.094.034-.191.063-.28.002-.01.006-.017.008-.029.166-.145.328-.305.485-.476.063.136.13.273.22.399.183.25.404.502.754.639.051.459.28.816.526 1.121a.082.082 0 0 0 .097.028.087.087 0 0 0 .046-.113l-.004-.006c-.157-.407-.221-.897-.064-1.189a.202.202 0 0 0-.066-.259s-.837-.248-1.064-1.15c.284-.359.547-.764.798-1.214.039.123.07.245.13.363.165.344.429.67.791.882.009.347.047.695.183 1.019.149.397.49.764.909.828.028.007.053-.008.065-.035a.057.057 0 0 0-.033-.072c-.349-.144-.53-.481-.584-.827a2.558 2.558 0 0 1 .08-1.054v-.009a.313.313 0 0 0-.191-.331c-.272-.118-.503-.372-.652-.679a2.437 2.437 0 0 1-.176-.498 2.904 2.904 0 0 1-.077-.436c.207-.415.413-.812.622-1.196.053.195.121.389.219.575.141.261.337.509.598.689.17.12.366.192.563.244a3.29 3.29 0 0 0 .132 1.195c.074.244.2.484.379.677.187.191.427.322.679.368a.096.096 0 0 0 .108-.066c.015-.047-.014-.103-.062-.121-.422-.139-.654-.538-.706-.955-.063-.423 0-.869.116-1.294l.004-.013.001-.027a.317.317 0 0 0-.29-.338c-.422-.028-.758-.268-.961-.659a2.582 2.582 0 0 1-.225-.642 4.102 4.102 0 0 1-.069-.506c.239-.419.482-.82.726-1.196.04.232.094.462.198.702a1.6 1.6 0 0 0 .695.734c.215.121.427.194.635.258.031.516.147 1.041.438 1.489.334.527.909.886 1.507.919a.105.105 0 0 0 .113-.093.105.105 0 0 0-.086-.126 1.627 1.627 0 0 1-1.161-.91c-.225-.455-.252-.989-.196-1.499a.293.293 0 0 0-.191-.313l-.041-.014c-.531-.14-.971-.316-1.139-.717-.097-.197-.145-.448-.176-.702-.018-.195-.018-.393-.021-.591.281-.399.562-.782.843-1.137a4.2 4.2 0 0 0 1.024 2.275c.721.81 2.133 1.754 4.762 1.797.436 3.175-2.322 8.032-3.353 9.705-.597-1.238-.846-2.932 1.336-7.486l-.764-.365zm-24.536-7.454c.335.534.654 1.076.976 1.622.66 1.1 1.275 2.3 2.323 3.138.038.026.096.024.124-.016.031-.036.023-.092-.015-.123-.975-.828-1.544-2.022-2.172-3.147a53.93 53.93 0 0 0-1.5-2.599c-.048-.247-.085-.48-.113-.693.755.878 1.393 1.848 1.975 2.864.326.565.638 1.144.988 1.701.351.558.751 1.111 1.3 1.51a.087.087 0 0 0 .123-.016.093.093 0 0 0-.017-.125c-.505-.394-.87-.936-1.199-1.492-.327-.56-.622-1.145-.931-1.725a20.086 20.086 0 0 0-1.429-2.327c.709.533 1.215 1.021 1.506 1.451l.606.909a14.287 14.287 0 0 0 1.784 2.96.08.08 0 0 0 .108.014c.037-.024.043-.075.017-.112-.715-1.017-1.258-2.146-1.69-3.307l-.052-.726c-.072-1.143-.065-2.109.506-3.257-.058.982-.044 1.972.124 2.945.235 1.422.753 2.782 1.464 4.02a.074.074 0 0 0 .099.027.072.072 0 0 0 .032-.099c-.664-1.249-1.126-2.6-1.312-3.992-.17-1.224-.095-2.459.065-3.69.113-.166.226-.336.365-.511-.148 2.129-.144 6.235 1.779 8.472.852.99 1.977 1.492 3.342 1.492 1.28 0 3.451-.698 4.042-1.959.195-.424.295-1.089-.348-1.852-.624-.738-1.843-.989-3.184-.651-1.145.288-2.566 1.109-3.116 2.523a4.689 4.689 0 0 0-.094-.105 5.334 5.334 0 0 1-.873-1.491c.562-1.104 2.376-2.46 4.501-2.842 1.361-.242 3.324-.164 4.941 1.589 1.113 1.207.979 2.406.673 3.197-.69 1.806-2.843 3.18-5.355 3.42-3.032.293-5.506-.368-7.347-1.949-1.689-1.451-2.557-3.402-3.016-5.048zm7.267 3.813c.338-1.282 1.613-2.031 2.625-2.285 1.007-.257 1.919-.104 2.327.376.385.455.316.759.226.948-.367.791-2.105 1.467-3.27 1.467-.732-.001-1.365-.166-1.908-.506zm20.242 6.101c.436-1.295.733-2.626.702-3.814.947 1.511 1.666 3.985 2.031 7.088-1.21-.798-2.253-1.737-2.733-3.274zm-5.141-9.349c1.71-1.836 3.545-2.941 5.657-3.443.643 1.652 1.547 5.058-.548 7.634-1.922-.009-3.404-.521-4.293-1.515-.635-.719-.917-1.669-.816-2.676z"></path><path d="M110.204 30.602a1.08 1.08 0 1 0 0 0zm-.231 1.083c0-.129.104-.234.231-.234.126 0 .228.105.228.234 0 .253-.459.253-.459 0zM73.007 29.778l.026.026a.242.242 0 0 0 .071.038c.104.035.22-.02.259-.126.125-.377.332-.73.654-.959.312-.221.757-.31 1.131-.176l.008.004a.06.06 0 0 0 .077-.034c.017-.031.002-.067-.025-.083-.417-.208-.924-.168-1.337.056-.335.179-.585.471-.772.793a1.544 1.544 0 0 0-.739-.274 1.393 1.393 0 0 0-.973.27l-.002.002a.056.056 0 0 0-.019.073c.019.028.054.039.081.023a1.228 1.228 0 0 1 1.56.367zM75.999 24.925a3.06 3.06 0 0 1 1.899 1.377l.007.008a.275.275 0 0 0 .144.121.283.283 0 0 0 .361-.168c.27-.73.913-1.358 1.708-1.631l.008-.004c.041-.013.058-.05.053-.091-.005-.042-.047-.071-.092-.066a3.194 3.194 0 0 0-1.968 1.204 3.483 3.483 0 0 0-1.21-.785 3.212 3.212 0 0 0-.874-.208c-.291-.026-.626.005-.883.152l-.006.004c-.029.014-.038.049-.029.078.015.035.051.05.087.038.262-.104.523-.087.795-.029zM124.116 27.266c.352.115.691.256.977.455.29.197.504.457.574.743l.042.071a.22.22 0 0 0 .046.054.26.26 0 0 0 .37-.019c.234-.264.491-.511.79-.679.298-.176.65-.251 1.017-.286a.07.07 0 0 0 .071-.064.08.08 0 0 0-.071-.083c-.37-.035-.774-.035-1.162.102a3.202 3.202 0 0 0-.756.401 1.892 1.892 0 0 0-.748-.554 4.047 4.047 0 0 0-1.117-.285c-.035-.003-.07.014-.082.051-.011.041.013.083.049.093zM81.901 32.845s0 .004.005.004a42.815 42.815 0 0 0 1.814 2.144c-1.685 1.847-1.443 3.613.794 5.851.891.893 2.859 2.572 5.36 4.358l.044.401c.316 2.983.784 3.955 8.355 4.513 1.025.449 2.05.844 3.056 1.144l.12.037.121-.037a25.724 25.724 0 0 0 3.069-1.146c7.557-.559 8.022-1.532 8.34-4.511l.068-.763a7.487 7.487 0 0 1-.774-.797l-.072.904-.063.568c-.235 2.186-.332 3.028-5.368 3.56.435-.23.872-.455 1.321-.713l-.228-.399c-.065-.118-.129-.234-.187-.349-2.255 1.273-4.35 2.228-6.227 2.799-6.756-2.053-14.327-8.159-16.334-10.167-2.136-2.137-1.97-3.355-.838-4.619.147.162.291.325.436.489l2.893 3.164c.029.033.091.039.121.01.046-.033.047-.087.017-.126l-2.633-3.376c-.865-1.133-1.742-2.268-2.52-3.433l-.002-.004s-.003-.002-.003-.004c-1.036-1.488-1.427-3.675.165-4.977l.232-.189-.096-.281c-.667-1.89.272-3.623 2.37-4.464l1.763 3.202a.125.125 0 0 0 .157.054.126.126 0 0 0 .067-.161l-1.506-3.529-.034-.142c-.129-.539.114-1.253.635-1.913.654-.828 1.613-1.371 2.469-1.422l1.354 2.684a.126.126 0 0 0 .152.062.128.128 0 0 0 .073-.158l-1.045-2.864c.95-2.028 3.007-2.933 4.896-2.152l.41.17.154-.418c.203-.574 1.125-1.5 2.14-1.774l.084-.892c-1.27.214-2.364 1.196-2.841 1.995-2.144-.685-4.381.322-5.509 2.501-1.084.095-2.213.743-3.004 1.742-.59.742-.885 1.545-.845 2.263-2.347.988-3.456 3.028-2.829 5.223-1.683 1.594-1.348 4.157-.097 5.938zm8.895 13.003c1.631 1.119 3.438 2.25 5.31 3.225-4.747-.505-5.09-1.288-5.31-3.225zM122.023 34.259c.153.253.29.538.406.853 1.4.073 2.684-.524 3.44-1.299 1.371 1.198 2.725 1.372 3.654 1.295 1.079-.089 2.137-.585 2.824-1.295 1.195 1.044 2.38 1.311 3.276 1.311.131 0 .257-.006.374-.016.436-.037.877-.116 1.272-.301.913-.427 1.121-1.442 1.168-1.851-.418.583-1.358 1.212-2.51 1.307-.822.063-2.066-.113-3.319-1.365l-.351-.355-.289.407c-.421.585-1.358 1.218-2.516 1.313-.834.063-2.069-.113-3.317-1.365l-.357-.355-.289.409c-.592.828-1.976 1.532-3.461 1.266l-.005.041zM132.609 36.157l-.351-.356-.289.407c-.421.585-1.358 1.219-2.516 1.312-.834.064-2.069-.112-3.317-1.363l-.357-.356-.289.407c-.497.696-1.542 1.293-2.741 1.318a5.891 5.891 0 0 1-.128.847c1.332.014 2.529-.563 3.25-1.305 1.371 1.198 2.725 1.376 3.654 1.295 1.079-.088 2.137-.583 2.824-1.295 1.195 1.047 2.38 1.31 3.276 1.31 1.251 0 1.858-.905 1.858-1.341-.439.25-.969.434-1.554.482-.823.065-2.066-.11-3.32-1.362zM135.368 40.776c-.777-.056-1.763-.367-2.759-1.362l-.351-.353-.289.405c-.421.586-1.358 1.22-2.516 1.315-.834.063-2.069-.115-3.317-1.367l-.357-.353-.289.405c-.391.546-1.888 1.4-3.762 1.057a9.067 9.067 0 0 1-.498.741c1.938.47 3.739-.12 4.63-.945 1.37 1.204 2.735 1.384 3.665 1.305 1.079-.087 2.137-.582 2.824-1.294.14.121.279.234.418.335 1.372.975 2.297.412 2.601.111zM65.644 34.807c.395.185.838.264 1.275.301.115.011.24.016.371.016.898 0 2.08-.267 3.274-1.311.692.71 1.749 1.206 2.828 1.295.923.077 2.282-.097 3.651-1.295.753.775 2.04 1.372 3.439 1.299.117-.315.256-.6.409-.853l-.009-.041c-1.485.266-2.865-.438-3.455-1.266l-.293-.409-.354.355c-1.253 1.252-2.49 1.428-3.318 1.365-1.158-.096-2.096-.728-2.513-1.313l-.291-.407-.356.355c-1.251 1.252-2.495 1.428-3.314 1.365-1.154-.096-2.09-.725-2.511-1.307.048.41.257 1.425 1.167 1.851zM77.427 36.208l-.293-.407-.354.356c-1.253 1.251-2.49 1.427-3.318 1.363-1.158-.094-2.096-.728-2.513-1.312l-.291-.407-.356.356c-1.251 1.251-2.495 1.427-3.314 1.363a3.772 3.772 0 0 1-1.553-.482c0 .436.607 1.341 1.855 1.341.898 0 2.08-.263 3.274-1.31.692.712 1.749 1.207 2.828 1.295.923.081 2.282-.097 3.651-1.295.723.741 1.918 1.318 3.252 1.305a6.515 6.515 0 0 1-.129-.847c-1.2-.026-2.245-.623-2.739-1.319zM77.427 39.466l-.293-.405-.354.353c-1.253 1.252-2.49 1.43-3.318 1.367-1.158-.096-2.096-.729-2.513-1.315l-.291-.405-.356.353c-.993.996-1.977 1.306-2.755 1.362.304.301 1.227.864 2.603-.112.139-.1.278-.214.414-.335.692.712 1.749 1.207 2.828 1.294.926.079 2.288-.1 3.665-1.305.892.825 2.689 1.414 4.628.945a9.104 9.104 0 0 1-.5-.741c-1.873.344-3.369-.51-3.758-1.056zM108.098 15.85l.04.113-.206 1.351a.14.14 0 0 0 .088.152.14.14 0 0 0 .18-.083l.491-1.293c1.882-.762 3.922.143 4.867 2.163l-.371 1.029a.125.125 0 0 0 .047.152c.057.04.134.027.178-.033l.621-.882c.875.034 1.859.583 2.526 1.428.482.61.709 1.262.644 1.783l-1.592 2.935a.132.132 0 0 0 .046.167c.052.041.135.026.178-.034l1.659-2.431c2.185.811 3.17 2.557 2.532 4.476a.03.03 0 0 1-.009.012l-3.184 4.75a.129.129 0 0 0 .028.175c.058.044.141.034.181-.023l3.266-4.239c1.399 1.32.999 3.405-.008 4.839-.751 1.071-2.763 3.487-4.109 5.075.122.289.24.593.346.899.603-.709 1.402-1.658 2.174-2.594 1.048 1.225 1.142 2.432-.927 4.507-.161.157-.354.339-.559.526.074.322.137.645.198.967.372-.328.698-.633.96-.895 2.205-2.204 2.474-3.95.871-5.768.721-.888 1.369-1.708 1.74-2.231 1.251-1.78 1.586-4.344-.095-5.937.621-2.195-.482-4.235-2.827-5.223.037-.718-.259-1.521-.847-2.263-.791-.999-1.924-1.647-3.006-1.742-1.128-2.179-3.365-3.188-5.51-2.501-.463-.8-1.496-1.665-2.799-1.984l.082.909c1.138.376 1.92 1.23 2.106 1.748z"></path><path d="M91.874 24.778a10 10 0 0 0-.101.853c.081.004.168.013.253.013 1.075 0 1.961-.443 2.516-1.277.64-.946.715-2.237.199-3.211a2.363 2.363 0 0 0-1.61-1.223 2.856 2.856 0 0 1 2.22-1.609c.961-.114 1.838.262 2.39 1.015l-.502 5.515c.289-.123.583-.251.886-.403l.158-1.768 5.85-5.332.243 2.546a9.45 9.45 0 0 1 .804-.499l-.795-8.443h-5.877l-.665 7.269a3.401 3.401 0 0 0-2.597-.741c-1.483.184-2.676 1.212-3.112 2.686l-.162.545h.566c.833 0 1.247.454 1.454.839.369.696.305 1.657-.155 2.339-.412.624-1.111.924-1.963.886zm11.375-12.977l-4.309 3.724.339-3.724h3.97z"></path><path d="M91.816 27.628c1.001.148 2.035.215 3.067.119a11.313 11.313 0 0 0 3.22-.807c2.052-.849 3.841-2.156 5.468-3.583 1.54-1.398 3.394-2.525 5.413-2.629a5.414 5.414 0 0 1 2.873.639c.434.237.836.535 1.181.885.291.296.555.666.668.995-.214.338-.602.57-1.03.594-.481.033-.989-.166-1.419-.49l-.542-.407-.131.699c-.023.419-.436.826-.931.948a1.347 1.347 0 0 1-1.38-.425l-.431-.505-.129.63c-.102.525-.342 1.025-.782 1.19-.44.171-1.011-.013-1.48-.303l-.249-.157-.054.28c-.11.556-.232 1.135-.543 1.565a.874.874 0 0 1-.644.365c-.257.017-.531-.069-.791-.179l-.076.164c.263.135.555.252.88.252.322.007.653-.172.856-.416.34-.425.499-.915.634-1.397.191.117.393.222.617.289.308.097.669.139 1.015.03a1.63 1.63 0 0 0 .836-.631c.089-.128.16-.269.225-.406.161.124.335.229.524.297.254.095.52.116.787.106-.273.714-.139 1.265.45 1.852.197-.108.396-.209.594-.305-.658-.565-.698-.947-.261-1.717.208-.091.415-.203.592-.361.149-.135.28-.295.38-.479.452.241.969.393 1.512.357.74-.039 1.493-.488 1.82-1.199l.061-.136-.027-.125c-.168-.689-.548-1.141-.946-1.569a5.733 5.733 0 0 0-1.379-1.033 6.28 6.28 0 0 0-3.32-.742c-2.317.125-4.334 1.395-5.933 2.84-1.583 1.392-3.309 2.643-5.223 3.437-1.903.804-3.985.964-6.038.607.009.283.031.568.066.861z"></path></g></svg>