<?xml version="1.0" encoding="utf-8"?>
<!-- Generator: Adobe Illustrator 27.8.1, SVG Export Plug-In . SVG Version: 6.00 Build 0)  -->
<svg version="1.1" id="Layer_1" xmlns="http://www.w3.org/2000/svg" xmlns:xlink="http://www.w3.org/1999/xlink" x="0px" y="0px"
	 viewBox="0 0 283.5 85" style="enable-background:new 0 0 283.5 85;" xml:space="preserve">
<style type="text/css">
	.st0{fill:#FFFFFF;}
	.st1{fill-rule:evenodd;clip-rule:evenodd;fill:#EE3435;}
	.st2{fill-rule:evenodd;clip-rule:evenodd;fill:#F7EC3D;}
	.st3{fill-rule:evenodd;clip-rule:evenodd;fill:#FDB72F;}
	.st4{fill-rule:evenodd;clip-rule:evenodd;fill:#F79331;}
	.st5{fill-rule:evenodd;clip-rule:evenodd;fill:#F36F31;}
	.st6{fill:#EE3435;}
</style>
<g>
	<g>
		<g>
			<path class="st0" d="M47.9,47.2c-0.1-0.1-0.2-0.1-0.3-0.2l0,0c-0.4,0.4-0.8,0.8-1.2,1.1l0,0l0,0c-2.1,1.9-4.4,3-6.8,3.3
				c-1.5,0.8-3.3,1.2-4.9,0.9c-1.1-0.2-2.9-0.8-4.3-1.7c-1.4-1-2.4-2.3-3-3.1c0.1,1.1,0.3,2.1,0.7,3.1c0.4,1.1,0.8,2.1,1.4,3.1
				c0.8,1.1,1.7,2.1,2.7,3c1.9,1.7,4.3,3,6.7,3.5c3.1,0.7,6.4,0,8.8-1.9c1.7-1.4,2.9-3.4,2.9-5.6C50.7,50.5,49.7,48.7,47.9,47.2
				L47.9,47.2z M46.8,46.7c-0.3,0.3-0.7,0.6-1,0.9l0,0c-1.4,1.3-3,2.2-4.6,2.7c0.4-0.3,0.7-0.7,1-1.1c0.2-0.2,0.3-0.5,0.5-0.7
				c0.5-0.8,0.9-2,0.9-2.9l0-0.1l0,0v0C44.8,45.9,45.9,46.2,46.8,46.7z"/>
			<path class="st0" d="M42.8,45.6c0-0.1,0-0.2,0-0.3l0,0c-0.5-0.2-1.1-0.3-1.6-0.5l0,0l0,0c-2.7-0.8-4.8-2.3-6.2-4.2
				c-1.5-0.9-2.7-2.2-3.3-3.8c-0.4-1.1-0.8-2.9-0.7-4.5c0.1-1.7,0.8-3.2,1.2-4.1c-0.9,0.6-1.7,1.4-2.4,2.1c-0.8,0.9-1.4,1.8-2,2.8
				c-0.6,1.2-1,2.5-1.3,3.8c-0.5,2.5-0.4,5.2,0.3,7.5c0.9,3.1,3.2,5.6,6,6.6c2.1,0.8,4.4,0.8,6.4-0.3C41.3,49.7,42.4,47.9,42.8,45.6
				L42.8,45.6z M42.8,44.5c-0.4-0.1-0.9-0.3-1.3-0.4l0,0c-1.9-0.6-3.4-1.4-4.6-2.6c0.5,0.2,1,0.3,1.5,0.3c0.1,0,0.1,0,0.2,0
				c0.2,0,0.3,0,0.5,0c1,0,2.2-0.2,3.1-0.7C42.4,42.3,42.7,43.4,42.8,44.5z"/>
			<path class="st0" d="M41.7,40.5c0.1,0,0.2-0.1,0.3-0.2l0,0c-0.1-0.5-0.3-1.1-0.4-1.6v0l0,0c-0.6-2.7-0.4-5.2,0.5-7.4v0
				c0.1-1.7,0.6-3.5,1.7-4.7c0.7-0.9,2.1-2.1,3.6-2.8c1.6-0.7,3.2-1,4.2-1c-1-0.4-2-0.8-3-1c-1.1-0.2-2.3-0.3-3.4-0.3
				c-1.4,0.1-2.7,0.4-4,0.8c-2.4,0.8-4.7,2.2-6.4,4c-2.2,2.3-3.2,5.5-2.8,8.5c0.3,2.2,1.5,4.2,3.4,5.4
				C37.4,41.2,39.5,41.3,41.7,40.5L41.7,40.5z M42.6,39.9c-0.1-0.4-0.2-0.9-0.3-1.3l0,0c-0.4-1.9-0.4-3.6-0.1-5.2
				c0.1,0.5,0.3,1,0.5,1.4c0.5,1.1,1.4,2.3,2.5,2.9l0,0l0,0C44.4,38.5,43.5,39.2,42.6,39.9z"/>
			<path class="st0" d="M45.6,36.9c0.1,0.1,0.2,0.1,0.3,0.2l0,0c0.4-0.4,0.8-0.8,1.2-1.1l0,0l0,0c2.1-1.9,4.3-3,6.7-3.2l0,0
				c1.5-0.8,3.3-1.2,4.9-0.9c1.1,0.2,2.9,0.8,4.3,1.7c1.4,1,2.5,2.3,3,3.2c-0.1-1.1-0.3-2.2-0.7-3.2c-0.4-1.1-0.8-2.1-1.4-3.1
				c-0.8-1.1-1.7-2.1-2.7-3c-1.9-1.7-4.3-3-6.7-3.5c-3.1-0.7-6.4,0-8.8,1.9C44,27,42.8,29,42.8,31.3C42.8,33.6,43.8,35.4,45.6,36.9
				L45.6,36.9z M46.6,37.4c0.3-0.3,0.7-0.6,1-0.9l0,0c1.4-1.3,2.9-2.2,4.5-2.7c-0.4,0.3-0.7,0.7-1,1.1c-0.7,1-1.3,2.3-1.3,3.6l0,0v0
				C48.7,38.3,47.6,37.9,46.6,37.4z"/>
			<path class="st0" d="M50.6,38.5c0,0.1,0,0.2,0,0.3l0,0c0.5,0.2,1.1,0.3,1.6,0.5l0,0l0,0c2.7,0.8,4.8,2.3,6.2,4.2
				c1.5,0.9,2.7,2.2,3.3,3.8c0.4,1.1,0.8,2.9,0.7,4.5c-0.1,1.7-0.8,3.3-1.3,4.2c0.9-0.7,1.7-1.4,2.4-2.2c0.8-0.9,1.4-1.8,2-2.8
				c0.6-1.2,1-2.5,1.3-3.8c0.5-2.5,0.4-5.2-0.3-7.5c-0.9-3.1-3.2-5.6-6-6.6c-2.1-0.8-4.4-0.8-6.4,0.3C52.1,34.4,51,36.2,50.6,38.5
				L50.6,38.5z M50.7,39.7c0.4,0.1,0.9,0.3,1.3,0.4l0,0c1.8,0.6,3.4,1.4,4.6,2.6c-0.5-0.2-1-0.3-1.5-0.3c-1.2-0.1-2.7,0.1-3.8,0.7
				l0,0l0,0C51,41.9,50.8,40.7,50.7,39.7z"/>
			<path class="st0" d="M51.8,43.7c-0.1,0-0.2,0.1-0.3,0.1l0,0c0.1,0.5,0.3,1.1,0.4,1.6v0l0,0c0.6,2.8,0.4,5.3-0.6,7.5
				c-0.1,1.7-0.6,3.4-1.7,4.7c-0.7,0.9-2.1,2.1-3.6,2.8c-1.6,0.7-3.2,1-4.2,1c1,0.5,2.1,0.8,3.1,1c1.1,0.2,2.3,0.3,3.4,0.3
				c1.4-0.1,2.7-0.4,4-0.8c2.4-0.8,4.7-2.2,6.4-4c2.2-2.3,3.2-5.5,2.8-8.5c-0.3-2.2-1.5-4.2-3.4-5.4C56.1,42.9,54,42.9,51.8,43.7
				L51.8,43.7z M50.8,44.3c0.1,0.4,0.2,0.9,0.3,1.3l0,0c0.4,1.9,0.4,3.7,0.1,5.3c-0.1-0.5-0.3-1.1-0.5-1.5c-0.5-1.1-1.4-2.3-2.5-2.9
				C49.1,45.7,49.9,44.9,50.8,44.3z"/>
		</g>
		<g>
			<path class="st1" d="M47.9,47.2c-0.1-0.1-0.2-0.1-0.3-0.2l0,0c-0.4,0.4-0.8,0.8-1.2,1.1l0,0l0,0c-2.1,1.9-4.4,3-6.8,3.3
				c-1.5,0.8-3.3,1.2-4.9,0.9c-1.1-0.2-2.9-0.8-4.3-1.7c-1.4-1-2.4-2.3-3-3.1c0.1,1.1,0.3,2.1,0.7,3.1c0.4,1.1,0.8,2.1,1.4,3.1
				c0.8,1.1,1.7,2.1,2.7,3c1.9,1.7,4.3,3,6.7,3.5c3.1,0.7,6.4,0,8.8-1.9c1.7-1.4,2.9-3.4,2.9-5.6C50.7,50.5,49.7,48.7,47.9,47.2
				L47.9,47.2z M46.8,46.7c-0.3,0.3-0.7,0.6-1,0.9l0,0c-1.4,1.3-3,2.2-4.6,2.7c0.4-0.3,0.7-0.7,1-1.1c0.2-0.2,0.3-0.5,0.5-0.7
				c0.5-0.8,0.9-2,0.9-2.9l0-0.1l0,0v0C44.8,45.9,45.9,46.2,46.8,46.7z"/>
			<path class="st1" d="M42.8,45.6c0-0.1,0-0.2,0-0.3l0,0c-0.5-0.2-1.1-0.3-1.6-0.5l0,0l0,0c-2.7-0.8-4.8-2.3-6.2-4.2
				c-1.5-0.9-2.7-2.2-3.3-3.8c-0.4-1.1-0.8-2.9-0.7-4.5c0.1-1.7,0.8-3.2,1.2-4.1c-0.9,0.6-1.7,1.4-2.4,2.1c-0.8,0.9-1.4,1.8-2,2.8
				c-0.6,1.2-1,2.5-1.3,3.8c-0.5,2.5-0.4,5.2,0.3,7.5c0.9,3.1,3.2,5.6,6,6.6c2.1,0.8,4.4,0.8,6.4-0.3C41.3,49.7,42.4,47.9,42.8,45.6
				L42.8,45.6z M42.8,44.5c-0.4-0.1-0.9-0.3-1.3-0.4l0,0c-1.9-0.6-3.4-1.4-4.6-2.6c0.5,0.2,1,0.3,1.5,0.3c0.1,0,0.1,0,0.2,0
				c0.2,0,0.3,0,0.5,0c1,0,2.2-0.2,3.1-0.7C42.4,42.3,42.7,43.4,42.8,44.5z"/>
			<path class="st2" d="M41.7,40.5c0.1,0,0.2-0.1,0.3-0.2l0,0c-0.1-0.5-0.3-1.1-0.4-1.6v0l0,0c-0.6-2.7-0.4-5.2,0.5-7.4v0
				c0.1-1.7,0.6-3.5,1.7-4.7c0.7-0.9,2.1-2.1,3.6-2.8c1.6-0.7,3.2-1,4.2-1c-1-0.4-2-0.8-3-1c-1.1-0.2-2.3-0.3-3.4-0.3
				c-1.4,0.1-2.7,0.4-4,0.8c-2.4,0.8-4.7,2.2-6.4,4c-2.2,2.3-3.2,5.5-2.8,8.5c0.3,2.2,1.5,4.2,3.4,5.4
				C37.4,41.2,39.5,41.3,41.7,40.5L41.7,40.5z M42.6,39.9c-0.1-0.4-0.2-0.9-0.3-1.3l0,0c-0.4-1.9-0.4-3.6-0.1-5.2
				c0.1,0.5,0.3,1,0.5,1.4c0.5,1.1,1.4,2.3,2.5,2.9l0,0l0,0C44.4,38.5,43.5,39.2,42.6,39.9z"/>
			<path class="st3" d="M45.6,36.9c0.1,0.1,0.2,0.1,0.3,0.2l0,0c0.4-0.4,0.8-0.8,1.2-1.1l0,0l0,0c2.1-1.9,4.3-3,6.7-3.2l0,0
				c1.5-0.8,3.3-1.2,4.9-0.9c1.1,0.2,2.9,0.8,4.3,1.7c1.4,1,2.5,2.3,3,3.2c-0.1-1.1-0.3-2.2-0.7-3.2c-0.4-1.1-0.8-2.1-1.4-3.1
				c-0.8-1.1-1.7-2.1-2.7-3c-1.9-1.7-4.3-3-6.7-3.5c-3.1-0.7-6.4,0-8.8,1.9C44,27,42.8,29,42.8,31.3C42.8,33.6,43.8,35.4,45.6,36.9
				L45.6,36.9z M46.6,37.4c0.3-0.3,0.7-0.6,1-0.9l0,0c1.4-1.3,2.9-2.2,4.5-2.7c-0.4,0.3-0.7,0.7-1,1.1c-0.7,1-1.3,2.3-1.3,3.6l0,0v0
				C48.7,38.3,47.6,37.9,46.6,37.4z"/>
			<path class="st4" d="M50.6,38.5c0,0.1,0,0.2,0,0.3l0,0c0.5,0.2,1.1,0.3,1.6,0.5l0,0l0,0c2.7,0.8,4.8,2.3,6.2,4.2
				c1.5,0.9,2.7,2.2,3.3,3.8c0.4,1.1,0.8,2.9,0.7,4.5c-0.1,1.7-0.8,3.3-1.3,4.2c0.9-0.7,1.7-1.4,2.4-2.2c0.8-0.9,1.4-1.8,2-2.8
				c0.6-1.2,1-2.5,1.3-3.8c0.5-2.5,0.4-5.2-0.3-7.5c-0.9-3.1-3.2-5.6-6-6.6c-2.1-0.8-4.4-0.8-6.4,0.3C52.1,34.4,51,36.2,50.6,38.5
				L50.6,38.5z M50.7,39.7c0.4,0.1,0.9,0.3,1.3,0.4l0,0c1.8,0.6,3.4,1.4,4.6,2.6c-0.5-0.2-1-0.3-1.5-0.3c-1.2-0.1-2.7,0.1-3.8,0.7
				l0,0l0,0C51,41.9,50.8,40.7,50.7,39.7z"/>
			<path class="st5" d="M51.8,43.7c-0.1,0-0.2,0.1-0.3,0.1l0,0c0.1,0.5,0.3,1.1,0.4,1.6v0l0,0c0.6,2.8,0.4,5.3-0.6,7.5
				c-0.1,1.7-0.6,3.4-1.7,4.7c-0.7,0.9-2.1,2.1-3.6,2.8c-1.6,0.7-3.2,1-4.2,1c1,0.5,2.1,0.8,3.1,1c1.1,0.2,2.3,0.3,3.4,0.3
				c1.4-0.1,2.7-0.4,4-0.8c2.4-0.8,4.7-2.2,6.4-4c2.2-2.3,3.2-5.5,2.8-8.5c-0.3-2.2-1.5-4.2-3.4-5.4C56.1,42.9,54,42.9,51.8,43.7
				L51.8,43.7z M50.8,44.3c0.1,0.4,0.2,0.9,0.3,1.3l0,0c0.4,1.9,0.4,3.7,0.1,5.3c-0.1-0.5-0.3-1.1-0.5-1.5c-0.5-1.1-1.4-2.3-2.5-2.9
				C49.1,45.7,49.9,44.9,50.8,44.3z"/>
		</g>
	</g>
	<g>
		<polygon class="st6" points="97.3,31.8 90.9,31.8 87,37.5 83,31.8 76.8,31.8 83.7,41.8 76.3,52.4 82.6,52.4 87,46.1 91.4,52.4 
			97.8,52.4 90.3,41.6 		"/>
		<path class="st6" d="M103,40.2c-0.1,2.7-0.4,4.7-0.8,6c-0.4,1.1-1,1.7-2,1.7c-0.3,0-0.5,0-0.7-0.1l-0.5-0.1l-0.3,4.7l0.3,0.1
			c0.9,0.2,1.7,0.3,2.4,0.3c1.6,0,2.9-0.5,3.8-1.5c0.9-1,1.5-2.4,1.9-4.2c0.4-1.8,0.6-4.1,0.7-6.9l0.1-3.8h6.1v16.1h5.3V31.8h-16.1
			L103,40.2z"/>
		<polygon class="st6" points="128.2,44.1 137.5,44.1 137.5,39.8 128.2,39.8 128.2,36.2 138.7,36.2 138.7,31.8 122.9,31.8 
			122.9,52.4 139.1,52.4 139.1,47.9 128.2,47.9 		"/>
		<path class="st6" d="M158.4,41.1c-1.3-1.1-3.3-1.6-5.8-1.6h-5.2v-3.3H159v-4.4h-16.9v20.6h9.9c2.6,0,4.7-0.6,6.2-1.7
			c1.5-1.2,2.3-2.8,2.3-4.9C160.4,43.7,159.7,42.2,158.4,41.1z M147.4,43.6h4.2c2.9,0,3.3,1.3,3.3,2.2c0,0.8-0.3,1.3-0.8,1.7
			c-0.6,0.4-1.4,0.6-2.5,0.6h-4.2V43.6z"/>
		<polygon class="st6" points="163.2,52.4 168.5,52.4 168.5,36.3 176.8,36.3 176.8,52.4 182.1,52.4 182.1,31.8 163.2,31.8 		"/>
		<path class="st6" d="M199.3,32.7L199.3,32.7c-1.3-0.6-3-0.9-4.8-0.9h-9v20.6h5.4v-5.5h3.6c1.8,0,3.4-0.3,4.8-0.9
			c1.4-0.6,2.4-1.5,3.2-2.6c0.7-1.1,1.1-2.5,1.1-4c0-1.5-0.4-2.9-1.1-4C201.7,34.2,200.6,33.3,199.3,32.7z M190.9,36.3h3.4
			c1.3,0,2.3,0.3,2.9,0.8c0.6,0.5,0.9,1.3,0.9,2.3c0,1-0.3,1.7-0.9,2.3c-0.7,0.5-1.6,0.8-2.9,0.8h-3.4V36.3z"/>
		<path class="st6" d="M222.4,32.8c-1.7-0.9-3.6-1.4-5.8-1.4s-4.1,0.5-5.8,1.4c-1.7,0.9-3.1,2.2-4.1,3.8c-1,1.6-1.5,3.5-1.5,5.5
			c0,2,0.5,3.8,1.5,5.5c1,1.6,2.3,2.9,4.1,3.8c1.7,0.9,3.7,1.4,5.8,1.4c2.1,0,4.1-0.5,5.8-1.4c1.7-0.9,3.1-2.2,4.1-3.8
			c1-1.6,1.5-3.5,1.5-5.5c0-2-0.5-3.8-1.5-5.5C225.5,35,224.1,33.7,222.4,32.8z M219.7,47.3c-0.9,0.5-1.9,0.8-3,0.8
			c-1.1,0-2.1-0.3-3-0.8c-0.9-0.5-1.6-1.2-2.1-2.1c-0.5-0.9-0.8-1.9-0.8-3.1c0-1.2,0.3-2.2,0.8-3.1c0.5-0.9,1.2-1.6,2.1-2.1
			c0.9-0.5,1.9-0.8,3-0.8c1.1,0,2.1,0.3,3,0.8c0.9,0.5,1.6,1.2,2.1,2.1c0.5,0.9,0.8,2,0.8,3.1c0,1.2-0.3,2.2-0.8,3.1
			C221.3,46.1,220.6,46.8,219.7,47.3z"/>
		<polygon class="st6" points="253.5,31.8 249,31.8 241.9,43.8 234.6,31.8 230.2,31.8 230.2,52.4 235.3,52.4 235.3,41.7 240.6,50.3 
			243.1,50.3 248.4,41.5 248.4,52.4 253.5,52.4 		"/>
	</g>
</g>
</svg>
