<?xml version="1.0" encoding="UTF-8"?> <svg xmlns="http://www.w3.org/2000/svg" width="560" height="140" viewBox="0 0 560 140" fill="none"><path d="M220.717 129.909H204.22C204.317 130.764 204.579 131.591 204.989 132.341C205.4 133.091 205.951 133.751 206.611 134.281C208.032 135.429 209.803 136.021 211.609 135.953C212.704 135.996 213.795 135.794 214.806 135.36C215.816 134.926 216.723 134.271 217.461 133.439L219.488 135.871C218.562 136.98 217.391 137.846 216.072 138.396C214.42 139.031 212.66 139.313 210.898 139.227C209.137 139.141 207.411 138.687 205.825 137.893C204.216 137.039 202.884 135.723 201.989 134.106C201.064 132.428 200.593 130.527 200.622 128.6C200.599 126.694 201.053 124.814 201.943 123.141C202.792 121.557 204.048 120.243 205.575 119.342C207.171 118.427 208.973 117.959 210.801 117.986C212.618 117.954 214.411 118.422 215.992 119.342C217.504 120.239 218.74 121.556 219.556 123.141C220.434 124.859 220.876 126.777 220.843 128.717C220.797 129.056 220.763 129.43 220.717 129.909ZM206.338 122.896C205.14 124.019 204.397 125.562 204.254 127.221H217.268C217.114 125.572 216.372 124.04 215.184 122.919C213.949 121.842 212.381 121.25 210.761 121.25C209.14 121.25 207.573 121.842 206.338 122.919V122.896Z" fill="#9C1444"></path><path d="M226.91 138.615C225.613 138.272 224.392 137.677 223.312 136.862L224.849 133.869C225.852 134.574 226.959 135.107 228.128 135.448C229.381 135.832 230.681 136.029 231.988 136.032C235.21 136.032 236.815 135.097 236.815 133.203C236.827 132.921 236.775 132.64 236.662 132.382C236.55 132.124 236.38 131.897 236.166 131.719C235.692 131.324 235.134 131.048 234.538 130.912C233.889 130.737 232.956 130.55 231.76 130.339C230.406 130.147 229.07 129.842 227.764 129.427C226.747 129.1 225.829 128.508 225.1 127.709C224.302 126.762 223.894 125.534 223.961 124.284C223.94 123.393 224.138 122.51 224.536 121.718C224.934 120.925 225.519 120.248 226.238 119.748C228.064 118.515 230.226 117.912 232.409 118.03C233.775 118.034 235.136 118.207 236.462 118.544C237.64 118.814 238.767 119.28 239.798 119.924L238.227 122.905C236.472 121.778 234.433 121.205 232.364 121.256C231.133 121.183 229.905 121.454 228.812 122.04C228.439 122.238 228.126 122.538 227.909 122.908C227.692 123.277 227.579 123.701 227.582 124.132C227.569 124.438 227.625 124.742 227.745 125.022C227.866 125.302 228.048 125.549 228.276 125.745C228.775 126.155 229.354 126.449 229.973 126.61C230.656 126.786 231.601 126.996 232.831 127.23C234.169 127.451 235.492 127.76 236.793 128.153C237.78 128.472 238.67 129.048 239.377 129.825C240.133 130.742 240.516 131.922 240.447 133.121C240.466 134.018 240.258 134.904 239.845 135.695C239.433 136.485 238.828 137.153 238.09 137.633C236.166 138.839 233.931 139.418 231.681 139.293C230.067 139.299 228.461 139.071 226.91 138.615Z" fill="#9C1444"></path><path d="M256.465 137.822C255.881 138.316 255.208 138.686 254.483 138.91C253.685 139.153 252.857 139.275 252.024 139.272C251.164 139.327 250.301 139.206 249.487 138.917C248.672 138.628 247.921 138.177 247.277 137.589C246.691 136.942 246.24 136.179 245.953 135.347C245.665 134.514 245.546 133.63 245.603 132.749V121.317H242.188V118.207H245.603V113.648H249.269V118.207H255.087V121.317H249.269V132.597C249.213 133.539 249.51 134.468 250.1 135.192C250.409 135.504 250.779 135.745 251.185 135.9C251.591 136.055 252.025 136.121 252.457 136.092C253.496 136.119 254.511 135.771 255.326 135.11L256.465 137.822Z" fill="#9C1444"></path><path d="M260.335 138.525C260.082 138.272 259.883 137.968 259.752 137.631C259.621 137.295 259.559 136.935 259.572 136.572C259.563 136.218 259.626 135.865 259.757 135.537C259.889 135.209 260.085 134.913 260.335 134.667C260.576 134.423 260.863 134.23 261.177 134.099C261.492 133.969 261.829 133.904 262.168 133.907C262.502 133.897 262.834 133.959 263.144 134.088C263.453 134.216 263.734 134.41 263.967 134.655C264.211 134.906 264.401 135.205 264.527 135.535C264.652 135.865 264.71 136.219 264.695 136.572C264.707 136.933 264.647 137.293 264.517 137.629C264.388 137.965 264.193 138.27 263.944 138.525C263.716 138.771 263.44 138.966 263.134 139.097C262.828 139.228 262.499 139.292 262.168 139.284C261.828 139.291 261.491 139.227 261.176 139.096C260.861 138.966 260.575 138.771 260.335 138.525Z" fill="#9C1444"></path><path d="M286.953 111.547V139.052H283.162V114.96H277.094V111.547H286.953Z" fill="#9C1444"></path><path d="M309.819 114.812C311.762 117.196 312.738 120.575 312.745 124.946C312.822 127.652 312.28 130.338 311.163 132.79C310.195 134.846 308.648 136.557 306.722 137.7C304.689 138.851 302.395 139.428 300.073 139.371C298.851 139.369 297.633 139.228 296.442 138.951C295.394 138.723 294.387 138.329 293.459 137.782L294.916 134.719C296.48 135.656 298.276 136.107 300.085 136.016C301.294 136.083 302.503 135.88 303.629 135.422C304.755 134.964 305.772 134.262 306.609 133.363C308.18 131.602 308.965 129.026 308.965 125.636V124.654C308.181 125.849 307.078 126.786 305.789 127.354C304.35 127.983 302.799 128.298 301.235 128.278C299.582 128.32 297.942 127.972 296.442 127.261C295.107 126.626 293.977 125.612 293.185 124.339C292.411 122.979 292.01 121.43 292.024 119.856C292.038 118.282 292.467 116.74 293.265 115.396C294.109 114.076 295.291 113.021 296.681 112.345C298.188 111.612 299.84 111.244 301.508 111.27C303.064 111.172 304.622 111.44 306.063 112.054C307.503 112.668 308.788 113.611 309.819 114.812ZM305.049 124.362C305.941 123.936 306.705 123.269 307.257 122.433C307.759 121.633 308.026 120.702 308.026 119.75C308.026 118.799 307.759 117.868 307.257 117.068C306.713 116.233 305.957 115.566 305.072 115.139C304.001 114.636 302.833 114.388 301.656 114.414C300.105 114.335 298.581 114.857 297.387 115.875C296.849 116.355 296.423 116.953 296.142 117.625C295.86 118.297 295.729 119.025 295.758 119.756C295.727 120.49 295.86 121.22 296.146 121.893C296.432 122.566 296.864 123.162 297.409 123.637C298.675 124.644 300.251 125.15 301.85 125.063C302.954 125.081 304.048 124.841 305.049 124.362Z" fill="#9C1444"></path><path d="M332.713 123.376C334.07 124.012 335.216 125.044 336.007 126.343C336.798 127.642 337.201 129.15 337.164 130.682C337.197 132.294 336.765 133.88 335.923 135.241C335.078 136.56 333.897 137.615 332.508 138.292C330.995 139.023 329.34 139.391 327.669 139.367C326.106 139.465 324.542 139.193 323.097 138.573C321.653 137.953 320.366 137.001 319.335 135.79C317.392 133.406 316.417 130.027 316.409 125.656C316.335 122.949 316.881 120.262 318.003 117.812C318.964 115.751 320.513 114.039 322.443 112.902C324.472 111.749 326.763 111.172 329.081 111.231C330.318 111.22 331.552 111.357 332.758 111.64C333.807 111.862 334.814 112.257 335.741 112.809L334.284 115.871C332.737 114.933 330.955 114.482 329.16 114.574C327.947 114.505 326.734 114.706 325.604 115.164C324.474 115.622 323.454 116.326 322.614 117.227C321.035 118.996 320.242 121.572 320.234 124.954C320.213 125.281 320.213 125.609 320.234 125.936C321.01 124.743 322.105 123.805 323.388 123.236C324.824 122.597 326.377 122.283 327.942 122.312C329.591 122.287 331.223 122.651 332.713 123.376ZM331.813 134.727C332.354 134.249 332.783 133.651 333.067 132.979C333.351 132.307 333.483 131.578 333.453 130.846C333.484 130.111 333.35 129.379 333.062 128.706C332.774 128.033 332.339 127.437 331.79 126.965C330.516 125.959 328.933 125.453 327.327 125.539C326.226 125.517 325.135 125.757 324.14 126.24C323.255 126.67 322.5 127.336 321.954 128.169C321.452 128.969 321.185 129.9 321.185 130.852C321.185 131.803 321.452 132.734 321.954 133.534C322.491 134.371 323.244 135.038 324.128 135.463C325.198 135.967 326.366 136.215 327.544 136.188C329.093 136.256 330.613 135.736 331.813 134.727Z" fill="#9C1444"></path><path d="M345.395 137.691C343.67 136.492 342.319 134.808 341.502 132.84C339.619 127.995 339.619 122.594 341.502 117.749C342.319 115.781 343.67 114.097 345.395 112.898C347.079 111.806 349.029 111.227 351.02 111.227C353.011 111.227 354.961 111.806 356.644 112.898C358.363 114.101 359.71 115.784 360.526 117.749C362.409 122.594 362.409 127.995 360.526 132.84C359.71 134.804 358.363 136.488 356.644 137.691C354.961 138.783 353.011 139.362 351.02 139.362C349.029 139.362 347.079 138.783 345.395 137.691ZM356.177 133.156C357.475 131.344 358.113 128.725 358.113 125.289C358.113 121.852 357.475 119.245 356.177 117.433C355.588 116.593 354.812 115.909 353.914 115.437C353.017 114.965 352.023 114.719 351.014 114.719C350.006 114.719 349.012 114.965 348.114 115.437C347.216 115.909 346.44 116.593 345.851 117.433C344.568 119.249 343.923 121.867 343.915 125.289C343.908 128.71 344.553 131.332 345.851 133.156C346.44 133.996 347.216 134.68 348.114 135.152C349.012 135.624 350.006 135.87 351.014 135.87C352.023 135.87 353.017 135.624 353.914 135.152C354.812 134.68 355.588 133.996 356.177 133.156Z" fill="#9C1444"></path><path d="M185.015 127.023H161.266V129.209H185.015V127.023Z" fill="#9C1444"></path><path d="M398.515 127.023H374.754V129.209H398.515V127.023Z" fill="#9C1444"></path><path d="M61.918 15.8516C60.9388 15.91 59.8231 15.9685 58.5593 16.0152C57.2956 16.062 55.9407 16.097 54.5176 16.097C52.5024 16.097 50.5214 16.097 48.5745 16.0152L42.3355 15.8516V17.5232C44.4959 17.4366 46.637 17.971 48.5176 19.0662C49.9901 20.0403 50.6391 21.6652 50.4645 23.9407C50.3051 26.2786 49.0186 29.353 46.6163 33.3625L39.0565 46.373L24.2558 21.9418C23.4702 20.656 23.345 19.7325 23.8687 19.148C24.6275 18.4645 25.5829 18.054 26.5897 17.9791C28.0435 17.7475 29.5133 17.6381 30.9844 17.6518V15.8983C28.252 16.0152 25.2159 16.1126 21.8763 16.1906C18.5366 16.2685 15.4512 16.3114 12.6201 16.3191C10.4114 16.3191 8.37345 16.3191 6.52906 16.2373C4.68466 16.1555 2.87441 16.062 1.12109 15.8983V17.6518C2.01429 17.7158 2.87304 18.0313 3.60306 18.5635C4.89337 19.5828 5.96992 20.8591 6.76815 22.3159L25.4854 52.0424V66.1283C25.5459 67.6483 25.3652 69.1683 24.9503 70.6288C24.7816 71.1093 24.5035 71.5415 24.1391 71.8892C23.7747 72.2369 23.3345 72.4901 22.8554 72.6277C21.3249 73.0291 19.7553 73.2526 18.1761 73.294V74.9656C19.7359 74.8487 21.8763 74.7786 24.6087 74.7552C27.3412 74.7318 30.2216 74.7552 33.2728 74.7552C36.0053 74.7552 38.7529 74.7552 41.5157 74.7552C44.2785 74.7552 46.5366 74.8253 48.2899 74.9656V73.294C46.7107 73.2536 45.1409 73.0301 43.6106 72.6277C43.1298 72.4937 42.6879 72.2418 42.323 71.8936C41.958 71.5454 41.681 71.1113 41.5157 70.6288C41.0949 69.1696 40.9141 67.6486 40.9806 66.1283V46.6535L52.4797 27.1904C53.8656 24.7571 55.5323 22.5043 57.4436 20.4806C58.6766 19.1777 60.1728 18.1682 61.8269 17.5232L61.918 15.8516Z" fill="#9C1444"></path><path d="M17.1461 76.1354V72.3013L18.1594 72.2428C19.6501 72.2108 21.1323 72.0029 22.5768 71.6233C22.9001 71.5362 23.1978 71.3692 23.4439 71.137C23.69 70.9047 23.877 70.6141 23.9886 70.2907C24.3559 68.9532 24.5134 67.5642 24.4554 66.1759V52.429L5.81783 22.8662C5.10706 21.5367 4.13834 20.3711 2.97153 19.4411C2.41064 19.0306 1.75544 18.7768 1.07021 18.7047H0V14.6484L1.13852 14.7536C2.86907 14.929 4.64515 15.0342 6.46678 15.0926C10.7021 15.2095 15.9051 15.1862 21.7571 15.0926C25.0702 15.0108 28.0759 14.9173 30.8083 14.8004H31.9468V18.7982H30.8766C29.4664 18.7864 28.0577 18.8919 26.6641 19.1138C25.8863 19.1622 25.1441 19.4654 24.5465 19.9789C24.4781 20.0607 24.5464 20.54 25.0588 21.4518L38.9829 44.2464L45.6546 32.7789C47.9316 28.9214 49.2068 25.9172 49.3548 23.8364C49.48 21.9661 49.0018 20.7036 47.8861 19.9555C46.1653 18.9894 44.2215 18.5207 42.2618 18.5995H41.2144V14.7186L48.5464 14.9173C51.8595 15.0225 55.3775 15.0576 58.4629 14.9173C59.7267 14.9173 60.831 14.8121 61.7988 14.7536L62.9373 14.6835V18.3073L62.2086 18.5644C60.7069 19.1658 59.3482 20.0905 58.2238 21.2764C56.374 23.2327 54.7608 25.411 53.4193 27.7641L42.0341 46.9583V66.1292C41.9752 67.5175 42.1328 68.9066 42.5009 70.2439C42.6107 70.5684 42.7972 70.86 43.0435 71.0925C43.2899 71.325 43.5885 71.4913 43.9126 71.5765C45.3568 71.958 46.8392 72.1659 48.3301 72.1961L49.3889 72.3013V76.1822L48.2504 76.1004C46.5047 75.9913 44.2656 75.925 41.5331 75.9016C35.6925 75.9016 29.8064 75.9016 24.6489 75.9016C21.9392 75.9016 19.7988 75.9952 18.2846 76.1004L17.1461 76.1354ZM33.313 73.6105C36.0455 73.6105 38.7969 73.6105 41.5673 73.6105H43.3434C42.7064 73.4205 42.1219 73.0792 41.6373 72.6141C41.1527 72.149 40.7816 71.5733 40.554 70.9336C40.0946 69.3537 39.8945 67.7064 39.962 66.059V46.8882L39.0398 48.478L23.203 22.5155C21.8823 20.3529 22.3263 19.0905 22.9298 18.4008C23.5021 17.7991 24.2218 17.367 25.0132 17.15L21.8026 17.2435C15.9051 17.3955 10.6679 17.4189 6.39847 17.2435C5.35104 17.2435 4.31499 17.1617 3.3017 17.0915C3.56799 17.2283 3.82647 17.3805 4.0759 17.5474C5.51194 18.6396 6.70372 20.0346 7.57115 21.6388L26.6186 51.716V66.1292C26.6815 67.7771 26.4776 69.4243 26.0151 71.0037C25.7896 71.6473 25.4162 72.2256 24.9267 72.6896C24.4371 73.1535 23.8459 73.4895 23.203 73.6689H24.6261C27.3662 73.63 30.2618 73.6105 33.313 73.6105ZM46.7476 17.0682C47.5512 17.3172 48.3175 17.6791 49.0246 18.1436C50.8348 19.3126 51.6546 21.3232 51.461 23.9884C51.2199 26.0328 50.614 28.0142 49.6735 29.8331L51.5749 26.6068C53.0258 24.1023 54.7608 21.7833 56.7437 19.6983C57.7815 18.6495 58.9582 17.7562 60.239 17.0448L58.554 17.1266C55.48 17.2669 51.8481 17.2201 48.4895 17.1266L46.7476 17.0682Z" fill="#9C1444"></path><path d="M121.403 67.9556L97.722 15.7734C96.6859 15.7734 95.5702 15.8553 94.3633 15.8553C93.1565 15.8553 92.0863 15.8553 90.9478 15.7734L68.7467 64.5422C67.7934 66.9778 66.368 69.189 64.5569 71.0416C63.3955 72.1843 61.9431 72.9664 60.3672 73.2977V74.9693C61.3349 74.8524 62.4621 74.7823 63.7258 74.7589C64.9896 74.7355 66.3444 74.7589 67.7676 74.7589C69.7827 74.7589 71.7638 74.7589 73.7106 74.7589C75.6575 74.7589 77.7068 74.8524 79.8472 74.9693V73.2977C77.7088 73.2863 75.5931 72.8455 73.6195 72.0001C72.845 71.6175 72.2017 71.0025 71.7748 70.2365C71.3479 69.4705 71.1575 68.5896 71.2287 67.7101C71.2287 65.5904 72.1205 62.4732 73.9042 58.3585L76.4886 52.6072H97.6878L103.528 66.284C104.826 69.1128 105.039 70.9598 104.166 71.8248C103.289 72.6898 101.194 73.1691 97.8814 73.286V74.9576C99.4411 74.8407 101.547 74.7706 104.212 74.7472C106.876 74.7238 109.699 74.7472 112.682 74.7472C115.346 74.7472 118.003 74.7472 120.652 74.7472C123.301 74.7472 125.578 74.8173 127.483 74.9576V73.286C126.382 73.1679 125.329 72.7657 124.42 72.117C123.062 71.0406 122.018 69.6008 121.403 67.9556ZM77.2856 50.959L87.3956 28.4215L97.0161 50.959H77.2856Z" fill="#9C1444"></path><path d="M59.3398 76.1939V72.3129L60.2393 72.1727C61.6129 71.8696 62.8779 71.1817 63.8939 70.1854C65.5812 68.4253 66.9124 66.3395 67.8104 64.0484L90.3758 14.6484H91.1045C93.1424 14.7536 95.6586 14.7536 97.7079 14.6484H98.4366L122.414 67.5085C122.966 68.958 123.895 70.2238 125.101 71.1674C125.853 71.7272 126.73 72.0849 127.651 72.2077L128.653 72.2662V76.1354L127.514 76.0653C125.579 75.9562 123.302 75.8899 120.683 75.8666C115.104 75.7964 109.298 75.8666 104.289 75.8666C101.647 75.8666 99.5409 75.9601 98.0153 76.0653L96.8768 76.1471V72.2428H97.9128C102.034 72.1025 103.196 71.3895 103.503 71.0739C103.81 70.7582 103.833 69.4022 102.638 66.7955L97.0703 53.7499H77.2146L74.9375 58.8583C73.1842 62.8094 72.319 65.7902 72.3531 67.719C72.3531 69.9517 73.3778 70.6881 74.1178 71.0388C75.9691 71.8113 77.9487 72.2083 79.947 72.2077H80.9717V76.077H79.8332C77.7041 75.9718 75.6776 75.9016 73.7421 75.8783C70.4176 75.8783 66.8313 75.8081 63.7915 75.8783C62.5619 75.8783 61.5144 75.9718 60.5239 76.077L59.3398 76.1939ZM112.725 73.6222C115.397 73.6222 118.053 73.6222 120.695 73.6222C122.334 73.6222 123.837 73.6222 125.249 73.7157C124.796 73.5016 124.359 73.2555 123.939 72.9793C122.405 71.8053 121.222 70.2139 120.524 68.3853L97.15 16.8695C95.4423 16.8695 93.4499 16.8695 91.7535 16.8695L87.6093 25.9639L104.687 65.8136C105.655 67.9177 106.759 70.9453 105.086 72.5935C104.551 73.0788 103.916 73.4343 103.23 73.6339H104.368C106.907 73.6339 109.731 73.6222 112.725 73.6222ZM72.7971 58.3439L69.7573 65.0187C68.7456 67.597 67.2262 69.9331 65.2943 71.8804C64.5068 72.6085 63.6257 73.222 62.6757 73.704C63.0173 73.704 63.3816 73.704 63.7459 73.704C66.7971 73.6339 70.429 73.704 73.7649 73.704H75.0172C74.3987 73.523 73.7938 73.2964 73.207 73.026C72.2483 72.5556 71.4492 71.8005 70.9133 70.8584C70.3774 69.9164 70.1294 68.8308 70.2013 67.7423C70.1672 65.5213 71.021 62.447 72.7971 58.3439ZM78.9907 49.869H95.4081L87.4385 31.1073L78.9907 49.869Z" fill="#9C1444"></path><path d="M182.304 46.794C177.643 45.0749 172.749 44.1165 167.799 43.9535V43.7898C171.656 43.2831 175.406 42.13 178.9 40.3764C181.395 39.1356 183.569 37.3048 185.241 35.0343C186.503 33.3271 187.219 31.261 187.291 29.1194C187.291 25.2853 185.291 22.1447 181.291 19.6977C177.291 17.2506 171.276 16.0271 163.245 16.0271C162.004 16.0271 159.932 16.0271 157.006 16.109C154.08 16.1908 151.063 16.2025 147.898 16.2025C145.166 16.2025 142.422 16.1713 139.667 16.109C136.9 16.109 134.714 16.0038 133.086 15.9453V17.6169C134.651 17.6074 136.21 17.8158 137.72 18.2365C138.204 18.3753 138.649 18.6283 139.021 18.9754C139.392 19.3224 139.68 19.7539 139.86 20.2354C140.28 21.7108 140.461 23.247 140.395 24.7826V66.1402C140.456 67.6602 140.275 69.1803 139.86 70.6407C139.691 71.1212 139.413 71.5534 139.049 71.9011C138.685 72.2489 138.244 72.5021 137.765 72.6396C136.235 73.042 134.665 73.2656 133.086 73.3059V74.9775C134.714 74.8606 136.9 74.7905 139.667 74.7671C142.433 74.7437 145.234 74.7671 148.092 74.7671C152.19 74.7671 155.708 74.7671 158.668 74.8957C161.629 75.0243 163.883 75.0243 165.443 75.0243C173.792 75.0243 180.365 73.6332 185.162 70.8511C189.959 68.069 192.346 64.0673 192.323 58.8459C192.283 56.4426 191.461 54.1219 189.989 52.253C187.942 49.768 185.291 47.8843 182.304 46.794ZM157.018 19.0314C157.769 18.0845 159.408 17.6169 161.936 17.6169C165.321 17.6169 167.758 18.6573 169.245 20.738C170.733 22.8188 171.492 25.936 171.522 30.0897C171.537 32.3687 171.207 34.6363 170.543 36.8112C169.949 38.8047 168.753 40.5527 167.128 41.8026C165.047 43.1867 162.588 43.8466 160.114 43.6846H155.925V24.7826C155.902 21.8953 156.278 19.9782 157.018 19.0314ZM172.9 69.2964C170.729 71.8213 167.314 73.0838 162.653 73.0838C159.864 73.0838 158.099 72.663 157.2 71.7979C156.3 70.9329 155.936 69.0626 155.936 66.1753V45.0406H160.023C165.807 45.0406 169.947 46.2095 172.445 48.5474C174.942 50.8854 176.194 54.1896 176.202 58.4602C176.179 63.136 175.078 66.7364 172.9 69.2613V69.2964Z" fill="#9C1444"></path><path d="M132.023 76.1437V72.3095L133.037 72.2511C134.524 72.2211 136.003 72.0131 137.443 71.6315C137.768 71.5462 138.068 71.38 138.316 71.1476C138.564 70.9152 138.753 70.6238 138.866 70.2989C139.233 68.9615 139.391 67.5725 139.333 66.1842V24.7799C139.407 23.3756 139.25 21.9685 138.866 20.6184C138.741 20.2897 138.542 19.9963 138.284 19.7626C138.027 19.5288 137.719 19.3613 137.386 19.2741C135.978 18.8921 134.527 18.7034 133.071 18.713H132.023V14.8438H133.162C134.79 14.8438 136.976 14.9607 139.731 15.0074C145.629 15.136 151.515 15.1243 156.98 15.0074C159.917 15.0074 162.001 14.9256 163.242 14.9256C171.45 14.9256 177.712 16.2114 181.856 18.7481C186.183 21.3899 188.38 24.8851 188.38 29.1167C188.299 31.4881 187.503 33.7752 186.103 35.6628C184.331 38.073 182.029 40.0195 179.386 41.3439C177.683 42.2414 175.898 42.9657 174.058 43.5065C177.019 43.9094 179.923 44.6706 182.71 45.7743C185.875 46.9228 188.685 48.916 190.851 51.5489C192.463 53.6057 193.361 56.1564 193.401 58.7964C193.401 64.4191 190.817 68.7793 185.705 71.7601C180.786 74.6124 173.978 76.0619 165.45 76.0619C163.879 76.0619 161.602 76.0229 158.619 75.945C155.67 75.8632 152.164 75.8164 148.077 75.8164C145.223 75.8164 142.418 75.8164 139.663 75.8164C136.919 75.8164 134.733 75.9099 133.139 76.0151L132.023 76.1437ZM173.705 69.9716C171.74 72.1247 169.1 73.4987 166.247 73.8526C174.023 73.7707 180.217 72.4147 184.646 69.8314C189.075 67.248 191.272 63.6242 191.272 58.7847C191.232 56.6195 190.482 54.5313 189.143 52.8581C187.199 50.5475 184.698 48.802 181.891 47.7966C177.589 46.1966 173.073 45.2859 168.502 45.0963C170.21 45.6204 171.79 46.5132 173.135 47.7147C175.856 50.2514 177.234 53.8634 177.234 58.4457C177.234 63.3787 176.095 67.248 173.705 69.9716ZM148.099 73.6071C152.198 73.6071 155.731 73.6499 158.699 73.7357C157.852 73.5601 157.067 73.1566 156.422 72.5667C155.34 71.4679 154.839 69.4339 154.839 66.1608V24.7799C154.839 21.6003 155.283 19.4962 156.194 18.3389C156.606 17.8259 157.133 17.4245 157.731 17.17H157.003C151.503 17.2752 145.617 17.2986 139.663 17.17H138.012C138.649 17.3577 139.235 17.6953 139.723 18.1559C140.211 18.6164 140.588 19.1874 140.824 19.8235C141.299 21.4203 141.503 23.0888 141.428 24.7565V66.1141C141.496 67.7623 141.292 69.4105 140.824 70.9886C140.6 71.6273 140.232 72.2021 139.748 72.6655C139.265 73.1289 138.682 73.4677 138.046 73.6538H139.617C142.418 73.6304 145.245 73.6188 148.099 73.6188V73.6071ZM156.968 46.125V66.1258C156.968 69.4924 157.56 70.6029 157.913 70.9652C158.266 71.3276 159.359 71.9355 162.615 71.9355C166.953 71.9355 170.141 70.7665 172.099 68.5221C174.08 66.1842 175.094 62.8176 175.094 58.4457C175.094 54.4596 173.955 51.432 171.678 49.3396C169.401 47.2472 165.462 46.125 159.974 46.125H156.968ZM164.38 44.2546C165.188 44.3598 165.951 44.4884 166.657 44.6521V43.3429C165.934 43.7347 165.17 44.0406 164.38 44.2546ZM166.19 17.2401C167.742 17.7707 169.098 18.7787 170.073 20.1274C171.701 22.4653 172.521 25.7501 172.521 30.0752C172.534 32.4535 172.189 34.8195 171.496 37.0889C170.835 39.3046 169.508 41.2484 167.705 42.6415L167.614 42.7116C171.343 42.217 174.969 41.1037 178.35 39.4152C180.693 38.2505 182.736 36.5367 184.316 34.412C185.451 32.8903 186.1 31.0443 186.171 29.1284C186.171 25.6215 184.373 22.8978 180.695 20.6535C177.428 18.6195 172.555 17.4622 166.225 17.1934L166.19 17.2401ZM156.934 42.5713H160.054C162.297 42.7254 164.529 42.1441 166.429 40.9114C167.872 39.7923 168.932 38.2333 169.458 36.4577C170.086 34.3922 170.397 32.239 170.38 30.0752C170.38 26.2294 169.697 23.3187 168.342 21.4367C166.987 19.5546 164.927 18.7598 161.898 18.7598C159.04 18.7598 158.107 19.391 157.811 19.7651C157.481 20.1859 156.934 21.3899 156.934 24.8266V42.5713Z" fill="#9C1444"></path><path d="M256.585 61.7917C256.56 59.3413 256.655 56.8912 256.87 54.4507H254.593C254.036 57.8742 252.879 61.1655 251.177 64.1647C249.666 66.8157 247.563 69.0595 245.04 70.7108C242.599 72.2689 239.775 73.0799 236.9 73.0487H232.118C230.793 73.101 229.467 72.9633 228.179 72.6396C227.776 72.5294 227.405 72.3194 227.1 72.028C226.794 71.7366 226.562 71.3726 226.426 70.968C226.077 69.723 225.927 68.4281 225.982 67.1338V24.7826C225.912 23.2427 226.112 21.7024 226.574 20.2354C226.78 19.7464 227.093 19.3123 227.487 18.9659C227.882 18.6196 228.348 18.3701 228.851 18.2365C230.492 17.8108 232.179 17.6026 233.872 17.6169V15.9453C232.05 15.9999 229.773 16.0544 227.04 16.109C224.308 16.1635 221.5 16.1947 218.615 16.2025C215.496 16.2025 212.555 16.1713 209.792 16.109C207.037 16.109 204.839 16.0038 203.223 15.9453V17.6169C204.784 17.6071 206.339 17.8156 207.845 18.2365C208.33 18.3753 208.777 18.6282 209.151 18.9752C209.524 19.3221 209.814 19.7536 209.997 20.2354C210.417 21.7108 210.597 23.247 210.532 24.7826V66.1402C210.592 67.6602 210.412 69.1803 209.997 70.6407C209.827 71.1226 209.547 71.5556 209.181 71.9034C208.814 72.2512 208.372 72.5037 207.891 72.6396C206.364 73.0413 204.798 73.2648 203.223 73.3059V74.9775C206.729 74.8606 210.524 74.7905 214.608 74.7671C218.691 74.7437 222.558 74.7437 226.209 74.7671H234.953C238.202 74.7671 241.902 74.7671 246.054 74.7671C250.205 74.7671 253.94 74.8372 257.257 74.9775C256.938 72.359 256.744 69.8341 256.676 67.3793C256.608 64.9245 256.585 63.0775 256.585 61.7917Z" fill="#9C1444"></path><path d="M258.446 76.1086H257.182C253.881 75.9995 250.158 75.9333 246.014 75.9099C241.869 75.8865 238.184 75.8554 234.959 75.8164H226.181C222.552 75.8164 218.693 75.8164 214.602 75.8164C210.511 75.8164 206.716 75.8826 203.217 76.0151H202.078V72.3095L203.091 72.2511C204.578 72.2201 206.057 72.0122 207.497 71.6315C207.822 71.5464 208.12 71.3801 208.367 71.1475C208.613 70.915 208.799 70.6235 208.909 70.2989C209.288 68.9637 209.45 67.5735 209.387 66.1842V24.7799C209.457 23.3796 209.3 21.9771 208.921 20.6301C208.795 20.3007 208.595 20.0064 208.338 19.7708C208.081 19.5353 207.774 19.3651 207.441 19.2741C206.029 18.8923 204.574 18.7036 203.114 18.713H202.078V14.8438H203.217C204.833 14.8438 207.019 14.9607 209.775 15.0074C215.057 15.1243 221.217 15.136 226.978 15.0074C229.733 14.9607 232.01 14.9061 233.809 14.8438H234.947V18.7247H233.911C232.315 18.7089 230.724 18.9014 229.175 19.2975C228.821 19.3776 228.49 19.5436 228.211 19.7815C227.931 20.0194 227.712 20.3223 227.57 20.6651C227.149 21.9956 226.975 23.3953 227.057 24.7916V67.1428C226.994 68.325 227.121 69.5098 227.433 70.6496C227.515 70.8947 227.656 71.1144 227.843 71.2881C228.03 71.4619 228.257 71.5841 228.503 71.6432C229.688 71.9337 230.906 72.0557 232.124 72.0056H236.905C239.578 72.0344 242.203 71.2845 244.477 69.843C246.857 68.2844 248.84 66.1643 250.26 63.6593C251.919 60.7784 253.046 57.6082 253.585 54.3077L253.744 53.4076H258.07L257.945 54.5765C257.73 56.9779 257.635 59.3892 257.661 61.8006C257.661 63.0631 257.661 64.9217 257.752 67.3532C257.843 69.7846 258.014 72.2745 258.332 74.8345L258.446 76.1086ZM241.015 73.6305H246.025C249.676 73.6305 253.004 73.685 256.01 73.7941C255.771 71.6082 255.623 69.4573 255.566 67.3766C255.497 64.9217 255.475 63.0397 255.475 61.7656C255.475 59.3341 255.532 57.2417 255.668 55.5234H255.452C254.831 58.7632 253.676 61.8705 252.036 64.7113C250.435 67.5081 248.211 69.8756 245.547 71.6199C244.147 72.5276 242.618 73.2059 241.015 73.6305ZM208.055 17.17C208.693 17.3577 209.278 17.6953 209.767 18.1559C210.255 18.6164 210.632 19.1874 210.867 19.8235C211.342 21.4203 211.546 23.0888 211.471 24.7565V66.1141C211.538 67.7614 211.337 69.4086 210.879 70.9886C210.654 71.6286 210.283 72.2042 209.798 72.6678C209.313 73.1313 208.727 73.4693 208.089 73.6538L207.885 73.724C209.991 73.724 212.2 73.6538 214.488 73.6421C218.587 73.6421 222.454 73.6421 226.089 73.6421H227.592C227.062 73.4609 226.58 73.1552 226.185 72.7494C225.79 72.3435 225.492 71.8488 225.315 71.3042C224.929 69.9383 224.76 68.5173 224.814 67.096V24.7799C224.732 23.099 224.96 21.4173 225.486 19.8235C225.748 19.1788 226.151 18.605 226.665 18.1468C227.178 17.6885 227.788 17.3582 228.446 17.1817H226.898C221.114 17.3102 214.909 17.2986 209.615 17.1817L208.055 17.17Z" fill="#9C1444"></path><path d="M405.735 68.2326L383.032 37.9567L395.203 25.5658C397.373 23.2777 399.887 21.3633 402.649 19.8964C404.767 18.8195 407.014 18.0335 409.332 17.5585V15.9687C406.987 16.1324 403.936 16.2259 400.167 16.2259C397.313 16.2259 394.797 16.1947 392.619 16.1323L385.788 15.9687V17.5585C387.837 17.4437 389.869 17.996 391.594 19.1366C392.207 19.6141 392.659 20.277 392.885 21.0319C393.112 21.7869 393.102 22.5958 392.858 23.3448C392.433 25.1528 390.987 27.3075 388.52 29.8091L382.828 35.724C380.623 37.9793 378.152 39.9427 375.473 41.5688C373.292 42.7594 370.872 43.4155 368.402 43.4859V24.7826C368.344 23.2503 368.509 21.7176 368.892 20.2354C369.058 19.7533 369.336 19.3198 369.7 18.9717C370.065 18.6236 370.507 18.3713 370.987 18.2365C372.527 17.8118 374.117 17.6034 375.712 17.6169V15.9453C373.958 15.9453 371.75 16.0622 369.086 16.109C366.421 16.1557 363.735 16.2025 361.002 16.2025C357.883 16.2025 354.945 16.1713 352.19 16.109C349.423 16.109 347.226 16.0038 345.609 15.9453V17.6169C347.17 17.6063 348.726 17.8147 350.232 18.2365C350.717 18.3753 351.164 18.6282 351.537 18.9752C351.911 19.3221 352.201 19.7536 352.384 20.2354C352.803 21.7108 352.984 23.247 352.919 24.7826V66.1402C352.979 67.6602 352.798 69.1802 352.384 70.6407C352.215 71.1212 351.937 71.5534 351.572 71.9011C351.208 72.2489 350.768 72.5021 350.289 72.6396C348.758 73.0402 347.188 73.2637 345.609 73.3059V74.9775C347.226 74.8606 349.423 74.7905 352.19 74.7671C354.957 74.7437 357.883 74.7671 361.002 74.7671C363.735 74.7671 366.421 74.7671 369.086 74.7671C371.75 74.7671 373.958 74.8606 375.712 74.9775V73.3059C374.136 73.2648 372.57 73.0413 371.044 72.6396C370.563 72.5037 370.12 72.2512 369.754 71.9034C369.387 71.5556 369.107 71.1226 368.938 70.6407C368.523 69.1802 368.342 67.6602 368.402 66.1402V45.3679C369.175 45.4016 369.94 45.5352 370.68 45.7653C371.476 46.0589 372.207 46.5118 372.831 47.0979C373.739 47.9661 374.556 48.93 375.268 49.9736L389.385 69.5652C390.433 70.8979 390.672 71.833 390.125 72.359C389.579 72.8851 387.962 73.2007 385.298 73.3176V74.9892C388.281 74.8723 390.748 74.8022 392.698 74.7788C394.657 74.7788 396.308 74.7788 397.674 74.7788C399.951 74.7788 402.478 74.7788 405.279 74.7788C408.08 74.7788 410.596 74.8723 412.873 74.9892V73.3176C411.418 72.8718 410.04 72.1975 408.786 71.3187C407.617 70.4611 406.587 69.4196 405.735 68.2326Z" fill="#9C1444"></path><path d="M344.441 76.1437V72.3095L345.455 72.2511C346.945 72.219 348.428 72.0112 349.872 71.6315C350.195 71.5445 350.493 71.3775 350.739 71.1453C350.985 70.913 351.172 70.6224 351.284 70.2989C351.651 68.9615 351.809 67.5725 351.751 66.1842V24.7799C351.825 23.3756 351.668 21.9685 351.284 20.6184C351.157 20.2907 350.957 19.9983 350.7 19.7647C350.443 19.5312 350.136 19.3631 349.804 19.2741C348.392 18.8913 346.937 18.7026 345.477 18.713H344.441V14.8438H345.58C347.197 14.8438 349.383 14.9607 352.138 15.0074C357.295 15.1126 363.307 15.136 368.999 15.0074C371.663 15.0074 373.872 14.9022 375.614 14.8438H376.753V18.713H375.717C374.222 18.6976 372.732 18.8903 371.288 19.2858C370.965 19.3668 370.667 19.5289 370.421 19.7574C370.174 19.9859 369.987 20.2738 369.876 20.595C369.53 21.9601 369.384 23.3706 369.443 24.7799V42.3142C371.362 42.1281 373.224 41.5477 374.92 40.6075C377.522 39.0337 379.92 37.1288 382.058 34.9381L387.751 29.0933C390.028 26.7554 391.428 24.7448 391.804 23.1433C392.003 22.6016 392.024 22.0079 391.863 21.4528C391.703 20.8978 391.37 20.4118 390.916 20.069C389.371 19.0795 387.565 18.6058 385.747 18.713H384.699V14.9373L392.669 15.1243C394.832 15.1243 397.348 15.2178 400.195 15.2178C403.895 15.2178 406.957 15.1243 409.303 14.9607L410.441 14.8788V18.561L409.553 18.7247C407.327 19.1492 405.164 19.8723 403.121 20.8756C400.458 22.2902 398.036 24.1376 395.948 26.3463L384.449 38.0358L406.593 67.6337C407.343 68.7152 408.249 69.673 409.28 70.4743C410.443 71.2844 411.722 71.9036 413.071 72.3095L413.811 72.555V76.1788H412.673C410.396 76.0697 407.876 76.0034 405.113 75.9801C402.35 75.9567 399.819 75.9567 397.519 75.9801C396.164 75.9801 394.513 75.9801 392.567 75.9801C390.62 75.9801 388.161 76.0736 385.189 76.1788H384.05V72.3095H385.075C388.297 72.181 389.06 71.7601 389.197 71.6549C388.974 71.1871 388.699 70.7477 388.377 70.3457L374.225 50.719C373.563 49.7372 372.8 48.8319 371.948 48.0187C371.436 47.5085 370.827 47.1108 370.161 46.8497C369.89 46.7549 369.612 46.6845 369.329 46.6393V66.1959C369.267 67.5852 369.429 68.9754 369.808 70.3106C369.916 70.6362 370.101 70.9288 370.348 71.1616C370.595 71.3944 370.894 71.56 371.219 71.6432C372.66 72.0239 374.138 72.2318 375.625 72.2628L376.639 72.3212V76.2022L375.5 76.1203C373.77 76.0151 371.572 75.945 368.931 75.9216C363.238 75.8515 357.216 75.9216 352.047 75.9216C349.314 75.9216 347.117 76.0151 345.534 76.1203L344.441 76.1437ZM397.542 73.6188C399.819 73.6188 402.354 73.6188 405.147 73.6188C407.208 73.6188 409.132 73.6772 410.908 73.7473C409.882 73.3373 408.91 72.7953 408.016 72.1342C406.806 71.2077 405.746 70.0913 404.874 68.8261L381.83 38.0826C380.023 39.7668 378.046 41.2481 375.933 42.5012C374.05 43.5487 371.984 44.2042 369.853 44.43C370.238 44.4965 370.619 44.5902 370.992 44.7105C371.912 45.0539 372.759 45.578 373.485 46.2536C374.458 47.1727 375.329 48.1999 376.081 49.3162L390.21 68.8962C391.986 71.1757 391.519 72.4732 390.813 73.1512C390.538 73.3984 390.222 73.5925 389.88 73.724C390.893 73.724 391.815 73.724 392.646 73.6655C394.513 73.6305 396.176 73.6188 397.542 73.6188ZM360.904 73.6188C363.637 73.6188 366.335 73.6188 368.999 73.6188H370.627C369.992 73.4326 369.408 73.0939 368.925 72.6304C368.442 72.167 368.073 71.5922 367.849 70.9535C367.391 69.3735 367.191 67.7263 367.257 66.079V24.7799C367.188 23.1286 367.368 21.4763 367.792 19.8819C368.012 19.2385 368.38 18.6585 368.863 18.1907C369.346 17.7229 369.932 17.3809 370.57 17.1934H368.965C363.273 17.3219 357.204 17.3102 352.024 17.1934H350.373C351.013 17.3787 351.601 17.7152 352.092 18.176C352.582 18.6368 352.96 19.209 353.197 19.8469C353.665 21.445 353.869 23.1125 353.8 24.7799V66.1375C353.863 67.7854 353.659 69.4326 353.197 71.012C352.971 71.6497 352.602 72.2236 352.119 72.6868C351.636 73.15 351.054 73.4894 350.419 73.6772H351.99C354.836 73.6305 357.785 73.6188 360.904 73.6188ZM390.21 17.1466C390.924 17.4018 391.596 17.7684 392.202 18.2337C392.983 18.8382 393.562 19.6773 393.858 20.6344C394.153 21.5916 394.152 22.6196 393.853 23.5758C393.526 24.8144 392.978 25.9799 392.236 27.0126L394.445 24.7565C396.707 22.3938 399.325 20.4203 402.198 18.9117C403.512 18.2635 404.866 17.7051 406.252 17.2401C404.475 17.3102 402.438 17.3453 400.172 17.3453C397.303 17.3453 394.775 17.3141 392.589 17.2518L390.21 17.1466Z" fill="#9C1444"></path><path d="M469.412 18.3731C463.688 15.8667 457.509 14.6432 451.287 14.7844C445.113 14.6538 438.994 15.9984 433.412 18.7121C428.45 21.1299 424.234 24.9082 421.23 29.6301C418.35 34.5454 416.815 40.1681 416.789 45.9044C416.763 51.6408 418.246 57.2779 421.082 62.2206C424.027 66.7985 428.209 70.3941 433.116 72.5658C438.855 75.0765 445.051 76.2962 451.287 76.1428C457.463 76.2615 463.582 74.9217 469.173 72.2268C474.161 69.8292 478.396 66.0475 481.401 61.3088C484.39 56.4114 485.914 50.7213 485.784 44.9434C485.961 39.1962 484.471 33.5247 481.503 28.6482C478.529 24.092 474.328 20.5221 469.412 18.3731ZM467.363 60.5139C466.183 64.4653 464.035 68.0396 461.124 70.8942C458.549 73.3577 455.148 74.7061 451.629 74.6582C448.188 74.6694 444.856 73.4267 442.225 71.1514C439.167 68.4448 436.849 64.9683 435.496 61.0633C433.763 56.1188 432.94 50.8864 433.071 45.6331C432.986 40.4782 433.729 35.3441 435.268 30.4367C436.445 26.5002 438.59 22.9414 441.496 20.1031C444.078 17.6463 447.482 16.3028 451.002 16.3508C454.442 16.3416 457.774 17.5841 460.407 19.8577C463.458 22.5483 465.773 26.0093 467.124 29.899C468.887 34.8372 469.733 40.071 469.617 45.3292C469.676 50.483 468.914 55.612 467.363 60.5139Z" fill="#9C1444"></path><path d="M451.288 77.2377C444.935 77.3674 438.626 76.1166 432.776 73.5672C427.674 71.3045 423.323 67.5681 420.252 62.8128C417.305 57.69 415.763 51.8441 415.789 45.8946C415.815 39.9451 417.409 34.1137 420.4 29.0183C423.522 24.1437 427.88 20.2356 433.004 17.7145C438.717 14.9479 444.973 13.568 451.288 13.6816C457.659 13.547 463.986 14.8062 469.846 17.3755C474.939 19.6242 479.289 23.3391 482.37 28.0715C485.446 33.1319 486.998 39.012 486.833 44.9746C486.951 50.9551 485.368 56.8412 482.279 61.9127C479.163 66.8174 474.779 70.7353 469.618 73.2282C463.884 75.9752 457.615 77.3464 451.288 77.2377ZM445.334 16.2767C441.381 16.7585 437.533 17.912 433.949 19.6901C429.171 22.0362 425.106 25.673 422.188 30.2107C419.425 34.9507 417.954 40.3665 417.93 45.8905C417.906 51.4145 419.33 56.8435 422.051 61.6088C424.886 66.0033 428.905 69.4557 433.618 71.5449C437.694 73.3688 442.039 74.4753 446.472 74.8179C444.692 74.1536 443.037 73.181 441.577 71.9423C438.378 69.1233 435.949 65.4974 434.529 61.4217C432.732 56.3693 431.864 51.0185 431.968 45.6408C431.892 40.3424 432.661 35.067 434.245 30.0236C435.492 25.917 437.737 22.2039 440.768 19.2342C442.087 17.9794 443.614 16.9777 445.277 16.2767H445.334ZM468.366 60.8606C467.128 64.9913 464.878 68.7264 461.831 71.7085C460.496 72.9582 458.954 73.952 457.277 74.6426C461.226 74.1489 465.071 73.0001 468.662 71.241C473.468 68.9251 477.552 65.2825 480.457 60.7204C483.323 56.004 484.787 50.5321 484.67 44.9746C484.839 39.4397 483.409 33.9774 480.56 29.2755C477.708 24.9029 473.688 21.4688 468.981 19.3861C464.907 17.5569 460.561 16.4464 456.127 16.1014C457.912 16.7673 459.572 17.744 461.034 18.9887C464.228 21.8124 466.656 25.4368 468.081 29.5093C469.881 34.5651 470.749 39.9202 470.643 45.3019C470.713 50.5807 469.944 55.8359 468.366 60.8606ZM450.947 17.3755C447.686 17.334 444.535 18.5908 442.157 20.8824C439.396 23.605 437.355 27.0042 436.226 30.7601C434.722 35.5742 433.999 40.6093 434.085 45.6642C433.979 50.7613 434.794 55.8344 436.488 60.6268C437.775 64.3506 439.979 67.6689 442.886 70.259C445.328 72.3791 448.42 73.5464 451.618 73.5555C454.877 73.6038 458.026 72.3458 460.396 70.0486C463.169 67.3195 465.215 63.9069 466.339 60.1359C467.832 55.3351 468.555 50.3173 468.48 45.2785C468.597 40.1549 467.786 35.0536 466.089 30.234C464.796 26.5202 462.587 23.2138 459.679 20.6369C457.236 18.5224 454.142 17.3667 450.947 17.3755Z" fill="#9C1444"></path><path d="M555.348 16.1401C554.084 16.1401 552.741 16.2336 551.306 16.2336C549.291 16.2336 547.31 16.2336 545.363 16.1401L539.124 15.9764V17.6481C541.288 17.5616 543.429 18.1395 545.272 19.308C546.013 19.9215 546.589 20.7193 546.946 21.6255C547.302 22.5318 547.428 23.5165 547.31 24.4864C546.976 27.9029 546.055 31.2314 544.589 34.3173L532.6 61.9631L515.454 24.6501C514.088 21.7043 513.891 19.8262 514.862 19.0157C515.841 18.2208 517.913 17.7533 521.101 17.6481V15.9764C519.473 15.9764 517.355 16.0933 514.714 16.1401C512.073 16.1869 509.272 16.2336 506.289 16.2336C503.625 16.2336 500.968 16.2024 498.319 16.1401C495.67 16.0778 493.393 16.0232 491.488 15.9764V17.6481C492.61 17.749 493.686 18.1523 494.608 18.817C495.955 19.8901 496.997 21.3153 497.625 22.9434L522.479 75.1372C523.027 75.0791 523.578 75.0518 524.13 75.0554H527.545C528.096 75.0518 528.648 75.0791 529.196 75.1372L549.758 27.5257C550.769 24.9081 552.279 22.5238 554.198 20.512C555.486 19.2055 557.042 18.211 558.752 17.6013V15.9297C557.739 16.0349 556.623 16.0933 555.348 16.1401Z" fill="#9C1444"></path><path d="M529.84 76.3268L529.066 76.245C528.577 76.245 528.064 76.1748 527.518 76.1748H524.102C523.556 76.1748 523.043 76.1748 522.554 76.245L521.814 76.3268L496.641 23.455C496.093 22.0032 495.177 20.7279 493.988 19.7611C493.233 19.1856 492.34 18.8302 491.404 18.7324L490.391 18.674V14.8281H491.529C493.48 14.8827 495.757 14.9372 498.36 14.9918C503.939 15.1204 509.745 15.1087 514.687 14.9918C517.317 14.9918 519.446 14.8866 521.062 14.8281H522.201V18.6974H521.165C517.328 18.826 516.007 19.4572 515.563 19.8663C515.119 20.2755 515.199 21.4795 516.44 24.1564L532.595 59.3185L543.639 33.8587C545.039 30.8877 545.918 27.6864 546.235 24.4019C546.292 22.3796 545.768 20.9885 544.641 20.1586C542.975 19.1166 541.045 18.6079 539.096 18.6974H538.049V14.8281L545.392 15.0152C548.694 15.1204 552.28 15.1554 555.298 15.0152C556.561 15.0152 557.677 14.91 558.645 14.8515H559.783V18.487L559.032 18.7324C557.478 19.2836 556.063 20.1819 554.888 21.3626C553.079 23.2641 551.658 25.5175 550.709 27.9906L529.84 76.3268ZM493.761 17.1193C494.253 17.3454 494.726 17.6153 495.172 17.9259C496.699 19.1027 497.88 20.688 498.588 22.5082L523.112 74.0006C523.442 74.0006 523.783 74.0006 524.125 74.0006H527.54C527.882 74.0006 528.201 74.0006 528.52 74.0006L532.607 64.5437L514.482 25.1032C513.89 23.8174 512.068 19.9014 514.186 18.148C514.76 17.712 515.409 17.3908 516.098 17.2011H514.732C509.745 17.318 503.928 17.3297 498.326 17.2011L493.761 17.1193ZM543.4 17.1193C544.283 17.3876 545.118 17.8022 545.871 18.3467C546.759 19.0578 547.455 19.9912 547.892 21.0576C548.328 22.124 548.491 23.2875 548.364 24.4369C548.173 27.0713 547.57 29.6567 546.577 32.0936L548.751 27.0437C549.815 24.2893 551.411 21.7843 553.442 19.6793C554.499 18.653 555.691 17.7835 556.983 17.0959L555.377 17.166C552.303 17.318 548.671 17.2712 545.313 17.166L543.4 17.1193Z" fill="#9C1444"></path><path d="M336.697 37.4204C336.546 35.8401 336.264 34.2759 335.855 32.7446C334.983 29.3381 333.38 26.1749 331.164 23.4864C329.551 21.4601 327.564 19.7809 325.317 18.5452C323.07 17.3095 320.608 16.5416 318.071 16.2857C314.966 15.9733 311.831 16.2547 308.826 17.1156C306.781 17.6857 304.786 18.4286 302.86 19.3367C302.984 19.1242 303.05 18.8824 303.054 18.6353C303.054 18.1677 303.054 17.7118 303.054 17.1624C302.986 16.4143 302.906 15.5843 302.849 14.7427C302.849 14.5323 302.849 14.3218 302.792 14.0997C305.174 14.1522 307.552 13.877 309.862 13.2815C313.286 12.4487 316.323 10.4248 318.458 7.5536C319.812 5.6901 320.837 3.59711 321.487 1.36983C321.539 1.19877 321.548 1.01673 321.513 0.841002C321.478 0.665274 321.4 0.501698 321.286 0.36582C321.172 0.229941 321.026 0.126277 320.861 0.0646716C320.697 0.00306613 320.521 -0.0144294 320.348 0.0138456C318.583 0.0956724 316.807 0.142425 315.065 0.364526C312.293 0.66907 309.641 1.69064 307.358 3.33367C305.514 4.67101 303.992 6.422 302.906 8.4537C302.633 8.95635 302.394 9.48237 302.155 10.0201C301.893 8.68748 301.563 7.37825 301.175 6.08071C300.652 4.36235 300.037 2.67906 299.388 0.972388C299.3 0.773058 299.174 0.59365 299.018 0.444498C298.861 0.295345 298.678 0.179394 298.478 0.103333C298.278 0.0272718 298.065 -0.00740077 297.852 0.00131519C297.639 0.0100312 297.43 0.0619604 297.236 0.154114C295.802 0.797039 294.39 1.45165 292.978 2.11796C291.84 2.67906 291.692 3.28692 292.375 4.3156C293.661 6.24437 294.971 8.17315 296.12 10.1604C297.026 11.7816 297.672 13.5419 298.033 15.3739C298.295 16.5429 298.557 17.7118 298.83 18.8808C298.871 19.0808 298.948 19.2712 299.058 19.4419C295.52 17.6309 291.672 16.5468 287.73 16.2506C284.812 16.0176 281.878 16.3832 279.1 17.3261C274.631 18.929 270.859 22.1055 268.454 26.2919C266.843 28.9789 265.739 31.953 265.198 35.0591C265.073 35.7488 264.857 37.7944 264.845 37.9581C264.667 40.075 264.774 42.2071 265.164 44.2938C265.38 45.6966 265.733 47.0759 266.064 48.4553C266.668 50.9527 267.527 53.378 268.625 55.6911C269.502 57.5381 270.538 59.3032 271.517 61.1034C271.938 61.8749 272.371 62.6464 272.861 63.4413C274.9 66.5624 277.387 69.3488 280.238 71.7058C282.582 73.7154 285.35 75.1363 288.322 75.8556C289.87 76.2135 291.472 76.2532 293.035 75.9723C294.598 75.6914 296.092 75.0956 297.43 74.2191C298.419 73.6299 299.542 73.3196 300.686 73.3196C301.83 73.3196 302.953 73.6299 303.942 74.2191C306.395 75.8251 309.334 76.4569 312.208 75.9959C314.471 75.6414 316.64 74.8181 318.583 73.5761C322.009 71.3625 324.998 68.5074 327.396 65.1597C329.154 62.8121 330.679 60.2903 331.95 57.6316C332.86 55.6911 333.703 53.7156 334.42 51.7167C335.238 49.4417 335.847 47.0937 336.242 44.703C336.723 42.3091 336.876 39.8578 336.697 37.4204Z" fill="#9C1444"></path></svg> 