<svg width="494" height="235" viewBox="0 0 494 235" fill="none" xmlns="http://www.w3.org/2000/svg">
<g clip-path="url(#clip0_291_1315)">
<path d="M256.841 232.541C253.636 232.541 250.431 232.541 247.296 232.463H246.546C243.46 232.512 240.256 232.541 237.061 232.541C158.405 232.541 85.6267 216.63 84.897 216.472C84.621 216.413 78.1625 214.968 74.8593 213.964C73.5138 213.6 72.3062 212.848 71.3885 211.801C70.0906 210.42 69.3833 208.589 69.4164 206.697V28.4997C69.4036 26.6169 70.1085 24.7995 71.3885 23.4154C72.3199 22.3386 73.5581 21.5702 74.9382 21.2125C78.1723 20.2291 84.6308 18.7835 84.9069 18.7245C85.6267 18.5573 158.465 2.45856 237.347 2.45856C240.512 2.45856 243.697 2.45856 246.803 2.53723H247.542C250.648 2.53723 253.873 2.45856 257.077 2.45856C335.624 2.45856 408.373 18.2721 409.093 18.4294C409.379 18.4884 415.838 19.9341 419.141 20.9372L419.338 20.9962L419.466 21.0552C419.621 21.1046 419.772 21.1638 419.92 21.2322C421.296 21.8551 422.459 22.8656 423.267 24.1394C424.074 25.4131 424.491 26.8945 424.465 28.4014V159.689L424.367 206.599C424.38 208.133 423.927 209.635 423.065 210.906C422.12 212.407 420.646 213.501 418.934 213.974C415.769 214.958 409.202 216.413 408.926 216.472C408.245 216.63 335.565 232.541 256.841 232.541Z" fill="#00909D"/>
<path d="M257.048 4.91714C336.235 4.91714 408.531 20.8585 408.531 20.8585C408.531 20.8585 415.137 22.3337 418.391 23.3171C418.589 23.4154 418.687 23.4154 418.884 23.5138C419.837 23.9332 420.644 24.6234 421.205 25.498C421.766 26.3725 422.057 27.3927 422.04 28.4309V159.719L421.941 206.628C421.951 207.678 421.641 208.707 421.054 209.578C420.422 210.585 419.438 211.321 418.293 211.644C415.137 212.627 408.432 214.102 408.432 214.102C408.432 214.102 336.206 230.083 256.84 230.083C253.685 230.083 250.51 230.083 247.335 230.004H246.546C243.378 230.057 240.216 230.083 237.061 230.083C157.755 230.083 85.4294 214.073 85.4294 214.073C85.4294 214.073 78.823 212.597 75.5691 211.614C74.6478 211.375 73.822 210.86 73.2026 210.139C72.3376 209.205 71.8769 207.968 71.9208 206.697V28.4997C71.8945 27.2317 72.3528 26.0012 73.2026 25.0577C73.822 24.3367 74.6478 23.8219 75.5691 23.5826C78.823 22.5992 85.4294 21.124 85.4294 21.124C85.4294 21.124 157.794 4.91714 237.317 4.91714C240.443 4.91714 243.588 4.91714 246.724 4.99581H247.513C250.707 4.93681 253.873 4.91714 257.048 4.91714V4.91714ZM257.048 0C253.843 0 250.619 -7.32711e-08 247.473 0.0786742H246.773C243.667 0.0786742 240.492 0 237.317 0C158.159 0 85.0645 16.1577 84.3349 16.3249C84.0588 16.3839 77.5904 17.8296 74.1788 18.8622C72.3566 19.3719 70.7268 20.4088 69.4951 21.8419C67.8648 23.6799 66.9759 26.0557 67.0005 28.5096V206.726C66.9805 208.898 67.6745 211.016 68.9762 212.757C70.278 214.497 72.1158 215.764 74.2084 216.364C77.62 217.347 84.0686 218.842 84.3645 218.901C85.104 219.059 158.139 235.029 237.071 235.029C240.265 235.029 243.47 235.029 246.606 234.951H247.306C250.441 235 253.656 235.029 256.85 235.029C335.861 235.029 408.807 219.059 409.537 218.901C409.813 218.842 416.439 217.387 419.742 216.354C422.01 215.694 423.958 214.232 425.225 212.243C426.331 210.58 426.915 208.625 426.901 206.628L426.999 159.728V28.4014C427.015 26.4096 426.446 24.4566 425.364 22.7828C424.281 21.1089 422.732 19.7872 420.906 18.9802L420.432 18.7835L420.255 18.7048L419.851 18.577C416.469 17.5935 409.921 16.0889 409.645 16.0299C408.896 15.8627 335.89 0 257.077 0H257.048Z" fill="white"/>
<path d="M491.515 117.5C491.515 155.067 381.08 182.996 246.98 182.996C113.176 182.996 2.44531 154.575 2.44531 117.5C2.44531 79.8347 111.697 52.0037 246.98 52.0037C382.263 52.0037 491.515 79.7363 491.515 117.5Z" fill="#E30613"/>
<path d="M246.98 185.455C181.538 185.455 120.069 178.728 73.9028 166.524C26.2283 153.926 -0.0493164 136.51 -0.0493164 117.5C-0.0493164 97.9396 25.3212 80.9066 73.321 68.2499C119.043 56.1832 180.709 49.5648 246.951 49.5648C313.192 49.5648 374.937 56.1931 420.61 68.2499C468.59 80.8968 493.951 97.9396 493.951 117.539C493.951 142.125 453.809 157.86 420.127 166.711C374.257 178.797 312.758 185.455 246.98 185.455ZM246.98 54.4622C181.153 54.4622 119.931 61.0414 74.6127 72.9999C30.3302 84.683 4.93013 100.91 4.93013 117.5C4.93013 133.835 30.5668 149.953 75.1846 161.754C120.956 173.85 181.971 180.518 247 180.518C312.344 180.518 373.399 173.919 418.924 161.941C463.502 150.209 489.07 134.002 489.07 117.48C489.07 100.605 464.321 84.7912 419.397 72.9408C374.178 61.0315 312.906 54.4622 246.98 54.4622V54.4622Z" fill="white"/>
<path d="M76.6145 138.231C76.103 137.697 75.7049 137.065 75.444 136.374C75.1831 135.683 75.0647 134.946 75.096 134.208V101.755C75.0647 101.017 75.1831 100.281 75.444 99.5898C75.7049 98.8986 76.103 98.2671 76.6145 97.7331C77.1297 97.218 77.7458 96.8142 78.4244 96.5468C79.103 96.2795 79.8294 96.1544 80.5586 96.1793H102.251C103.692 96.1091 105.113 96.5363 106.274 97.3889C106.764 97.7612 107.158 98.2442 107.424 98.7982C107.689 99.3522 107.819 99.9613 107.803 100.575C107.823 101.204 107.695 101.828 107.43 102.399C107.164 102.969 106.769 103.47 106.274 103.86C105.12 104.73 103.696 105.169 102.251 105.099H86.0606V111.983H94.7179C99.4706 111.983 103.148 113.179 105.752 115.572C108.355 117.965 109.669 121.329 109.696 125.662C109.696 130.042 108.305 133.497 105.525 136.028C102.744 138.558 98.994 139.827 94.2742 139.834H80.5783C79.8422 139.855 79.1096 139.724 78.4272 139.448C77.7448 139.172 77.1274 138.758 76.6145 138.231ZM97.4591 129.714C98.0355 129.201 98.4883 128.565 98.7837 127.853C99.0791 127.142 99.2094 126.373 99.1649 125.603C99.2339 124.88 99.1385 124.151 98.8859 123.47C98.6332 122.789 98.2298 122.174 97.7056 121.67C96.3439 120.752 94.7091 120.325 93.0713 120.46H86.0606V131.17H92.7064C94.4152 131.275 96.1042 130.758 97.4591 129.714V129.714Z" fill="white"/>
<path d="M119.398 138.417C118.923 137.884 118.56 137.261 118.329 136.586C118.099 135.91 118.006 135.196 118.057 134.484V101.391C118.006 100.68 118.098 99.9648 118.328 99.2891C118.559 98.6135 118.923 97.9908 119.398 97.4577C119.913 96.9818 120.519 96.6152 121.18 96.3802C121.841 96.1452 122.543 96.0467 123.244 96.0907H144.325C145.731 95.9921 147.127 96.3888 148.269 97.2118C148.725 97.6092 149.083 98.106 149.316 98.6637C149.548 99.2213 149.649 99.8249 149.61 100.428C149.61 103.398 147.842 104.883 144.305 104.883H128.973V113.183H143.112C146.642 113.183 148.417 114.648 148.417 117.579C148.456 118.181 148.355 118.785 148.123 119.343C147.89 119.9 147.532 120.397 147.076 120.794C145.931 121.611 144.536 122.004 143.132 121.906H128.973V131.002H144.325C147.862 131.002 149.63 132.487 149.63 135.457C149.669 136.06 149.568 136.664 149.336 137.221C149.103 137.779 148.745 138.276 148.289 138.673C147.145 139.493 145.749 139.886 144.345 139.784H123.244C122.543 139.829 121.841 139.731 121.18 139.496C120.519 139.261 119.913 138.894 119.398 138.417V138.417Z" fill="white"/>
<path d="M169.656 138.575C169.128 138.043 168.716 137.407 168.448 136.708C168.18 136.008 168.061 135.261 168.098 134.513V105.355H159.5C158.091 105.456 156.692 105.052 155.556 104.214C155.093 103.762 154.735 103.214 154.509 102.609C154.282 102.004 154.192 101.357 154.244 100.713C154.19 100.075 154.28 99.4327 154.507 98.8337C154.733 98.2347 155.092 97.6939 155.556 97.2512C156.697 96.4259 158.094 96.0289 159.5 96.1301H188.026C189.432 96.0314 190.828 96.4282 191.97 97.2512C192.434 97.6939 192.792 98.2347 193.019 98.8337C193.246 99.4327 193.336 100.075 193.281 100.713C193.334 101.357 193.244 102.004 193.017 102.609C192.791 103.214 192.433 103.762 191.97 104.214C190.834 105.052 189.435 105.456 188.026 105.355H179.438V134.513C179.473 135.261 179.352 136.008 179.084 136.706C178.816 137.405 178.406 138.042 177.88 138.575C176.733 139.551 175.275 140.088 173.768 140.088C172.26 140.088 170.802 139.551 169.656 138.575V138.575Z" fill="white"/>
<path d="M236.42 134.936C236.374 136.31 235.809 137.616 234.837 138.592C233.866 139.568 232.561 140.141 231.184 140.198C230.463 140.191 229.753 140.021 229.107 139.701C228.462 139.38 227.897 138.918 227.457 138.349L216.975 125.564L206.316 138.349C205.886 138.912 205.334 139.372 204.7 139.692C204.066 140.012 203.368 140.185 202.658 140.198C201.976 140.191 201.302 140.045 200.678 139.77C200.054 139.494 199.493 139.094 199.03 138.595C198.06 137.695 197.481 136.452 197.419 135.132C197.356 133.812 197.814 132.521 198.694 131.534L210.399 117.766L199 104.332C198.168 103.413 197.692 102.227 197.659 100.988C197.656 100.295 197.799 99.6091 198.077 98.974C198.356 98.3389 198.764 97.7689 199.276 97.3004C199.752 96.8022 200.324 96.4051 200.958 96.133C201.592 95.8609 202.274 95.7194 202.964 95.7171C203.684 95.7292 204.391 95.9026 205.035 96.2243C205.678 96.546 206.241 97.0079 206.681 97.5758L216.975 109.957L227.26 97.6151C227.667 97.0438 228.206 96.5774 228.83 96.2542C229.454 95.9311 230.146 95.7605 230.849 95.7564C231.539 95.7588 232.221 95.9002 232.855 96.1723C233.489 96.4444 234.061 96.8415 234.537 97.3398C235.049 97.8082 235.457 98.3783 235.736 99.0133C236.014 99.6484 236.156 100.334 236.154 101.028C236.141 102.259 235.686 103.445 234.872 104.371L223.483 117.805L235.118 131.573C235.95 132.497 236.413 133.694 236.42 134.936Z" fill="white"/>
<path d="M252.177 137.582C248.972 135.773 246.375 133.06 244.713 129.783C242.985 126.068 242.09 122.023 242.09 117.928C242.09 113.833 242.985 109.787 244.713 106.073C246.368 102.798 248.967 100.093 252.177 98.3035C255.719 96.5125 259.634 95.5792 263.605 95.5792C267.576 95.5792 271.491 96.5125 275.033 98.3035C278.239 100.088 280.83 102.796 282.468 106.073C284.186 109.79 285.076 113.834 285.076 117.928C285.076 122.021 284.186 126.066 282.468 129.783C280.802 133.058 278.206 135.77 275.003 137.582C271.478 139.391 267.57 140.336 263.605 140.336C259.64 140.336 255.732 139.391 252.206 137.582H252.177ZM271.227 128.111C273.054 125.777 273.968 122.381 273.968 117.923C273.968 113.465 273.044 110.082 271.197 107.774C270.251 106.688 269.083 105.817 267.77 105.22C266.458 104.624 265.032 104.315 263.59 104.315C262.148 104.315 260.722 104.624 259.41 105.22C258.097 105.817 256.929 106.688 255.983 107.774C254.155 110.069 253.242 113.461 253.242 117.952C253.242 122.443 254.155 125.849 255.983 128.17C256.929 129.261 258.099 130.136 259.414 130.736C260.73 131.336 262.159 131.646 263.605 131.646C265.051 131.646 266.48 131.336 267.795 130.736C269.11 130.136 270.281 129.261 271.227 128.17V128.111Z" fill="white"/>
<path d="M329.304 121.05C330.675 123.039 331.366 125.415 331.276 127.826C331.324 130.061 330.676 132.257 329.422 134.11C328.093 135.982 326.251 137.433 324.117 138.29C321.556 139.332 318.807 139.837 316.042 139.775H299.871C299.171 139.821 298.469 139.724 297.808 139.491C297.147 139.257 296.541 138.892 296.025 138.418C295.55 137.884 295.187 137.261 294.956 136.586C294.726 135.91 294.634 135.196 294.684 134.484V101.391C294.633 100.68 294.725 99.9648 294.956 99.2892C295.186 98.6136 295.55 97.9908 296.025 97.4578C296.54 96.9818 297.146 96.6152 297.807 96.3802C298.468 96.1452 299.171 96.0468 299.871 96.0908H315.47C319.986 96.0908 323.572 97.1136 326.227 99.1591C327.513 100.112 328.548 101.361 329.243 102.8C329.938 104.238 330.274 105.824 330.221 107.42C330.255 109.521 329.639 111.581 328.456 113.32C327.251 115.058 325.525 116.37 323.526 117.067C325.839 117.723 327.871 119.123 329.304 121.05V121.05ZM305.639 113.281H313.626C315.23 113.406 316.837 113.065 318.251 112.298C318.747 111.942 319.143 111.465 319.401 110.912C319.658 110.359 319.768 109.749 319.72 109.141C319.771 108.506 319.663 107.868 319.407 107.285C319.151 106.701 318.753 106.19 318.251 105.797C316.851 104.99 315.239 104.623 313.626 104.745H305.639V113.281ZM319.503 130.088C320.421 129.129 320.934 127.854 320.934 126.528C320.934 125.202 320.421 123.927 319.503 122.968C318.517 122.25 316.949 121.886 314.721 121.886H305.639V131.17H314.721C316.91 131.17 318.507 130.816 319.463 130.088H319.503Z" fill="white"/>
<path d="M341.373 138.418C340.896 137.885 340.531 137.263 340.301 136.587C340.07 135.911 339.979 135.196 340.032 134.484V101.391C339.978 100.679 340.069 99.964 340.3 99.2881C340.53 98.6121 340.895 97.9895 341.373 97.4577C341.887 96.9808 342.493 96.6136 343.154 96.3786C343.815 96.1435 344.518 96.0456 345.218 96.0908H366.29C367.695 95.9954 369.09 96.3919 370.234 97.2119C370.69 97.6092 371.048 98.106 371.281 98.6637C371.513 99.2214 371.614 99.825 371.575 100.428C371.575 103.398 369.807 104.883 366.27 104.883H350.947V113.183H365.087C368.617 113.183 370.382 114.648 370.382 117.579C370.421 118.181 370.32 118.785 370.087 119.343C369.855 119.9 369.497 120.397 369.041 120.794C367.897 121.615 366.501 122.008 365.097 121.906H350.947V131.002H366.29C369.833 131.002 371.601 132.487 371.595 135.457C371.634 136.06 371.533 136.664 371.3 137.221C371.068 137.779 370.71 138.276 370.253 138.673C369.108 139.49 367.714 139.883 366.309 139.784H345.218C344.518 139.83 343.815 139.732 343.154 139.497C342.493 139.262 341.887 138.894 341.373 138.418V138.418Z" fill="white"/>
<path d="M417.405 97.3397C417.915 97.8805 418.31 98.5178 418.567 99.2138C418.825 99.9099 418.939 100.65 418.904 101.391V134.513C418.938 135.26 418.824 136.007 418.566 136.709C418.309 137.411 417.914 138.055 417.405 138.604C416.89 139.119 416.274 139.522 415.595 139.788C414.916 140.054 414.19 140.176 413.461 140.148C412.727 140.184 411.993 140.068 411.306 139.807C410.619 139.547 409.993 139.147 409.468 138.634C408.956 138.082 408.56 137.432 408.304 136.724C408.048 136.016 407.938 135.265 407.979 134.513V122.152H390.428V134.533C390.462 135.28 390.347 136.026 390.09 136.728C389.832 137.431 389.438 138.075 388.929 138.624C388.414 139.139 387.798 139.543 387.119 139.808C386.44 140.074 385.713 140.197 384.985 140.168C384.25 140.204 383.517 140.088 382.829 139.827C382.142 139.566 381.516 139.167 380.991 138.654C380.478 138.102 380.08 137.453 379.823 136.745C379.566 136.037 379.453 135.285 379.493 134.533V101.391C379.457 100.65 379.572 99.9099 379.829 99.2138C380.087 98.5178 380.482 97.8805 380.991 97.3397C382.089 96.3638 383.509 95.8245 384.98 95.8245C386.451 95.8245 387.87 96.3638 388.968 97.3397C389.478 97.8805 389.873 98.5178 390.13 99.2138C390.388 99.9099 390.502 100.65 390.467 101.391V113.094H408.018V101.391C407.981 100.651 408.094 99.9107 408.35 99.2147C408.606 98.5186 408.999 97.881 409.507 97.3397C410.608 96.365 412.029 95.8267 413.501 95.8267C414.973 95.8267 416.393 96.365 417.494 97.3397H417.405Z" fill="white"/>
<path d="M111.697 201.554C110.59 200.668 109.767 199.478 109.331 198.131C108.87 196.627 108.789 195.033 109.094 193.489C109.321 191.942 109.931 190.475 110.869 189.221C111.729 188.096 112.901 187.248 114.241 186.782C115.866 186.281 117.596 186.217 119.253 186.599C120.911 186.981 122.438 187.794 123.677 188.956C123.89 189.147 124.052 189.387 124.151 189.654C124.222 189.938 124.222 190.235 124.151 190.52C124.081 190.962 123.862 191.368 123.53 191.67C123.389 191.806 123.219 191.906 123.032 191.965C122.845 192.023 122.648 192.036 122.455 192.004C122.238 191.975 122.03 191.901 121.843 191.788C121.628 191.661 121.427 191.513 121.242 191.346C120.817 190.953 120.339 190.622 119.822 190.362C119.365 190.135 118.876 189.976 118.373 189.89C117.804 189.749 117.21 189.74 116.637 189.864C116.064 189.989 115.528 190.243 115.069 190.608C114.112 191.583 113.523 192.858 113.403 194.217C113.076 195.531 113.201 196.916 113.758 198.151C114.069 198.648 114.49 199.067 114.989 199.376C115.489 199.685 116.052 199.875 116.637 199.931C117.098 200.005 117.567 200.005 118.027 199.931C118.481 199.852 119.083 199.724 119.822 199.528L120.601 199.302C120.793 199.267 120.99 199.267 121.183 199.302C121.376 199.334 121.559 199.411 121.717 199.527C121.874 199.644 122.002 199.795 122.09 199.97C122.301 200.365 122.37 200.819 122.287 201.259C122.243 201.546 122.132 201.819 121.962 202.055C121.784 202.281 121.554 202.46 121.291 202.576C119.581 203.359 117.668 203.593 115.819 203.245C114.324 203.036 112.907 202.454 111.697 201.554V201.554Z" fill="white"/>
<path d="M124.782 204.052C124.63 203.828 124.527 203.575 124.478 203.309C124.428 203.044 124.435 202.771 124.496 202.508L126.389 190.008C126.398 189.735 126.47 189.467 126.598 189.225C126.726 188.983 126.908 188.773 127.129 188.612C127.35 188.45 127.605 188.34 127.875 188.291C128.145 188.241 128.422 188.253 128.686 188.327L136.782 189.546C137.329 189.595 137.843 189.827 138.241 190.205C138.391 190.38 138.499 190.587 138.555 190.811C138.612 191.034 138.615 191.268 138.566 191.493C138.399 192.614 137.58 193.067 136.279 192.86L130.363 191.965L129.88 195.093L135.313 195.919C136.663 196.125 137.285 196.784 137.097 197.885C137.075 198.115 137.001 198.336 136.879 198.532C136.758 198.728 136.593 198.894 136.397 199.016C135.907 199.265 135.346 199.334 134.81 199.213L129.377 198.387L128.864 201.79L134.78 202.685C136.131 202.891 136.752 203.56 136.555 204.651C136.535 204.883 136.461 205.106 136.34 205.304C136.218 205.502 136.052 205.669 135.855 205.792C135.366 206.032 134.809 206.098 134.277 205.979L126.182 204.76C125.912 204.743 125.649 204.672 125.408 204.551C125.167 204.429 124.954 204.259 124.782 204.052Z" fill="white"/>
<path d="M143.201 206.795C143.028 206.568 142.904 206.307 142.836 206.03C142.768 205.752 142.758 205.464 142.806 205.182L144.276 194.158L140.963 193.726C140.408 193.698 139.883 193.471 139.484 193.086C139.33 192.893 139.222 192.669 139.165 192.429C139.109 192.19 139.107 191.94 139.158 191.7C139.171 191.455 139.238 191.217 139.356 191.002C139.474 190.788 139.639 190.603 139.839 190.461C140.324 190.198 140.887 190.118 141.426 190.234L152.41 191.69C152.96 191.721 153.482 191.94 153.889 192.309C154.043 192.5 154.152 192.723 154.208 192.961C154.265 193.199 154.267 193.447 154.215 193.686C154.201 193.933 154.133 194.174 154.015 194.391C153.898 194.609 153.734 194.798 153.534 194.945C153.049 195.206 152.486 195.286 151.947 195.171L148.634 194.738L147.175 205.743C147.149 206.027 147.065 206.303 146.927 206.554C146.79 206.804 146.602 207.024 146.376 207.198C146.136 207.367 145.866 207.486 145.58 207.548C145.293 207.611 144.998 207.615 144.71 207.562C144.126 207.513 143.584 207.237 143.201 206.795Z" fill="white"/>
<path d="M154.51 208.182C154.353 207.962 154.242 207.713 154.183 207.45C154.123 207.186 154.117 206.914 154.165 206.648L155.575 194.099C155.62 193.525 155.889 192.992 156.325 192.614C156.551 192.441 156.81 192.315 157.086 192.244C157.362 192.173 157.65 192.158 157.932 192.201C158.221 192.208 158.505 192.278 158.765 192.407C159.024 192.536 159.251 192.72 159.431 192.946C159.61 193.172 159.738 193.435 159.805 193.716C159.871 193.997 159.875 194.289 159.815 194.571L159.352 198.682L162.921 199.085C164.47 199.151 165.939 199.789 167.043 200.875C167.502 201.411 167.837 202.041 168.023 202.722C168.209 203.402 168.241 204.115 168.118 204.809C168.075 205.567 167.857 206.305 167.481 206.966C167.105 207.626 166.58 208.19 165.948 208.615C164.525 209.439 162.859 209.745 161.235 209.48L155.94 208.89C155.667 208.872 155.4 208.8 155.155 208.678C154.909 208.557 154.69 208.388 154.51 208.182ZM163.296 205.881C163.52 205.72 163.705 205.511 163.836 205.269C163.968 205.028 164.043 204.759 164.055 204.484C164.112 204.207 164.106 203.92 164.036 203.646C163.966 203.372 163.834 203.117 163.651 202.901C163.162 202.502 162.556 202.274 161.925 202.252L158.967 201.917L158.524 205.851L161.482 206.176C162.102 206.299 162.747 206.194 163.296 205.881Z" fill="white"/>
<path d="M181.311 210.768C180.952 210.544 180.657 210.233 180.453 209.864C180.28 209.565 180.198 209.224 180.216 208.88C180.226 208.673 180.278 208.469 180.368 208.282C180.457 208.094 180.584 207.927 180.739 207.789C180.895 207.649 181.077 207.544 181.276 207.48C181.475 207.416 181.685 207.393 181.893 207.415C182.272 207.462 182.636 207.593 182.957 207.798C183.492 208.121 184.065 208.375 184.663 208.556C185.166 208.693 185.681 208.782 186.202 208.821C187.041 208.924 187.893 208.84 188.696 208.575C188.968 208.494 189.207 208.331 189.384 208.11C189.56 207.888 189.664 207.618 189.682 207.336C189.727 207.083 189.715 206.822 189.647 206.574C189.578 206.326 189.456 206.096 189.288 205.9C188.74 205.501 188.073 205.296 187.395 205.32L185.856 205.202C185.317 205.193 184.802 204.978 184.417 204.602C184.263 204.444 184.144 204.256 184.067 204.049C183.991 203.843 183.959 203.622 183.973 203.402C183.991 203.185 184.056 202.974 184.163 202.784C184.27 202.594 184.417 202.429 184.594 202.301C185.032 201.992 185.571 201.859 186.103 201.927L187.168 202.006C187.854 202.123 188.559 202.041 189.199 201.77C189.405 201.64 189.573 201.46 189.689 201.246C189.805 201.033 189.864 200.793 189.86 200.55C189.893 200.302 189.856 200.049 189.753 199.819C189.65 199.59 189.486 199.394 189.278 199.252C188.737 198.921 188.118 198.738 187.483 198.721C187.005 198.671 186.522 198.671 186.044 198.721C185.595 198.79 185.151 198.882 184.713 198.997L184.082 199.154C183.765 199.265 183.43 199.312 183.096 199.292C182.879 199.284 182.667 199.232 182.472 199.139C182.277 199.046 182.103 198.914 181.962 198.751C181.826 198.601 181.723 198.425 181.659 198.234C181.594 198.043 181.57 197.84 181.587 197.64C181.607 197.279 181.742 196.935 181.971 196.656C182.237 196.338 182.575 196.089 182.957 195.928C184.75 195.316 186.654 195.101 188.538 195.299C190.144 195.333 191.696 195.881 192.966 196.863C193.463 197.278 193.851 197.809 194.093 198.41C194.336 199.01 194.426 199.661 194.356 200.305C194.312 201.119 194.008 201.898 193.488 202.527C192.944 203.142 192.219 203.572 191.418 203.756C192.27 204.04 193.014 204.579 193.547 205.3C194.009 206.025 194.208 206.886 194.109 207.739C194.056 208.693 193.669 209.598 193.015 210.296C192.289 211.056 191.374 211.61 190.363 211.899C189.122 212.263 187.824 212.387 186.537 212.263C184.699 212.194 182.906 211.681 181.311 210.768V210.768Z" fill="white"/>
<path d="M199.779 212.135C198.58 211.385 197.628 210.301 197.038 209.018C196.441 207.572 196.175 206.011 196.259 204.45C196.342 202.888 196.774 201.365 197.521 199.99C198.232 198.769 199.293 197.79 200.568 197.177C201.972 196.538 203.515 196.263 205.054 196.381C206.599 196.422 208.106 196.858 209.432 197.649C210.631 198.39 211.58 199.472 212.154 200.757C212.743 202.205 213.006 203.764 212.922 205.325C212.839 206.885 212.411 208.408 211.671 209.785C210.954 211.004 209.89 211.983 208.614 212.597C207.202 213.219 205.663 213.5 204.122 213.42C202.58 213.34 201.079 212.9 199.74 212.135H199.779ZM207.352 208.919C208.199 207.825 208.648 206.476 208.624 205.094C208.797 203.722 208.49 202.333 207.756 201.16C207.41 200.721 206.973 200.36 206.476 200.101C205.978 199.843 205.431 199.694 204.872 199.663C204.312 199.632 203.752 199.721 203.229 199.923C202.706 200.126 202.233 200.437 201.84 200.836C200.99 201.925 200.541 203.272 200.568 204.651C200.405 206.021 200.707 207.406 201.426 208.585C201.774 209.023 202.213 209.381 202.711 209.637C203.21 209.892 203.757 210.039 204.317 210.067C204.877 210.095 205.436 210.003 205.958 209.799C206.479 209.594 206.951 209.281 207.342 208.88L207.352 208.919Z" fill="white"/>
<path d="M218.839 213.02C217.622 212.298 216.644 211.234 216.029 209.962C215.364 208.543 215.059 206.983 215.141 205.418C215.154 203.849 215.55 202.306 216.295 200.924C216.97 199.693 218.001 198.692 219.253 198.053C220.651 197.406 222.18 197.092 223.721 197.136C225.261 197.181 226.77 197.582 228.127 198.308C229.345 199.018 230.321 200.077 230.928 201.347C231.584 202.772 231.885 204.334 231.805 205.9C231.799 207.467 231.403 209.008 230.652 210.385C229.973 211.619 228.944 212.625 227.694 213.276C226.297 213.928 224.767 214.245 223.226 214.201C221.685 214.156 220.175 213.752 218.819 213.02H218.839ZM226.343 209.628C227.155 208.509 227.568 207.152 227.516 205.772C227.656 204.387 227.307 202.996 226.53 201.839C226.173 201.409 225.728 201.06 225.225 200.815C224.721 200.57 224.172 200.434 223.612 200.418C223.052 200.401 222.496 200.503 221.979 200.718C221.462 200.932 220.996 201.254 220.614 201.662C219.879 202.817 219.47 204.148 219.43 205.515C219.39 206.883 219.721 208.235 220.387 209.431C220.745 209.86 221.191 210.208 221.694 210.453C222.198 210.697 222.748 210.831 223.307 210.847C223.867 210.863 224.424 210.76 224.94 210.544C225.457 210.329 225.921 210.006 226.303 209.598L226.343 209.628Z" fill="white"/>
<path d="M251.013 198.279C251.389 198.699 251.584 199.25 251.556 199.813L251.348 212.627C251.357 212.887 251.313 213.145 251.218 213.387C251.123 213.629 250.979 213.849 250.796 214.033C250.612 214.206 250.395 214.339 250.158 214.425C249.92 214.512 249.668 214.549 249.416 214.535C249.16 214.543 248.905 214.497 248.669 214.399C248.432 214.301 248.219 214.155 248.044 213.969C247.869 213.783 247.735 213.562 247.652 213.32C247.569 213.079 247.538 212.822 247.562 212.568L247.671 205.625L244.89 210.542C244.691 210.972 244.394 211.349 244.022 211.644C243.711 211.86 243.336 211.967 242.957 211.948C242.576 211.951 242.204 211.834 241.892 211.614C241.535 211.317 241.248 210.944 241.054 210.522L238.461 205.664L238.353 212.47C238.359 212.726 238.314 212.981 238.219 213.219C238.124 213.458 237.982 213.674 237.8 213.856C237.616 214.032 237.398 214.169 237.159 214.257C236.92 214.345 236.665 214.382 236.41 214.368C236.159 214.372 235.909 214.327 235.675 214.234C235.442 214.141 235.229 214.003 235.049 213.827C234.873 213.636 234.737 213.411 234.65 213.166C234.564 212.92 234.529 212.66 234.547 212.401L234.754 199.567C234.746 199.286 234.795 199.006 234.898 198.744C235.001 198.482 235.157 198.243 235.355 198.043C235.55 197.85 235.783 197.699 236.039 197.601C236.296 197.503 236.57 197.459 236.844 197.472C237.259 197.479 237.662 197.613 237.998 197.856C238.366 198.139 238.661 198.507 238.856 198.928L243.076 207.159L247.542 199.066C247.703 198.67 247.974 198.329 248.324 198.083C248.674 197.837 249.087 197.697 249.514 197.679C249.793 197.668 250.07 197.715 250.328 197.819C250.587 197.922 250.82 198.079 251.013 198.279Z" fill="white"/>
<path d="M271.217 212.204C271.223 212.456 271.173 212.707 271.069 212.937C270.965 213.167 270.81 213.37 270.615 213.532C270.23 213.892 269.724 214.096 269.195 214.102C268.848 214.114 268.504 214.022 268.209 213.837C267.887 213.638 267.632 213.347 267.48 213.001L266.366 210.64L258.704 210.798L257.659 213.197C257.514 213.547 257.271 213.847 256.959 214.063C256.664 214.253 256.323 214.358 255.973 214.368C255.441 214.376 254.924 214.194 254.514 213.856C254.308 213.705 254.139 213.508 254.021 213.281C253.903 213.054 253.839 212.804 253.833 212.548C253.829 212.242 253.896 211.939 254.03 211.663L260.016 198.751C260.209 198.34 260.521 197.998 260.913 197.767C261.315 197.527 261.775 197.398 262.244 197.394C262.707 197.383 263.166 197.491 263.575 197.708C263.985 197.928 264.313 198.272 264.512 198.692L271.02 211.358C271.144 211.624 271.211 211.912 271.217 212.204V212.204ZM260.094 207.513L264.827 207.415L262.352 202.203L260.094 207.513Z" fill="white"/>
<path d="M273.909 213.443C273.701 213.241 273.536 213 273.424 212.733C273.312 212.466 273.256 212.179 273.258 211.889L272.755 199.272C272.734 199.007 272.767 198.741 272.851 198.489C272.936 198.237 273.071 198.005 273.248 197.807C273.435 197.614 273.658 197.459 273.906 197.353C274.153 197.246 274.419 197.19 274.688 197.187L282.862 196.863C283.372 196.803 283.884 196.944 284.292 197.256C284.456 197.412 284.586 197.599 284.674 197.808C284.763 198.016 284.807 198.24 284.804 198.466C284.825 198.696 284.799 198.927 284.728 199.147C284.657 199.367 284.542 199.57 284.39 199.744C284.013 200.092 283.514 200.279 283 200.265L277.084 200.501L277.537 211.722C277.562 212.007 277.529 212.294 277.441 212.566C277.353 212.837 277.211 213.089 277.025 213.306C276.827 213.511 276.59 213.675 276.327 213.786C276.064 213.898 275.782 213.955 275.496 213.955C275.211 213.984 274.922 213.953 274.649 213.865C274.375 213.777 274.123 213.634 273.909 213.443Z" fill="white"/>
<path d="M301.468 210.66C301.486 210.913 301.446 211.167 301.35 211.403C301.254 211.638 301.106 211.848 300.916 212.017C300.548 212.393 300.052 212.617 299.526 212.647C299.183 212.661 298.842 212.583 298.54 212.42C298.218 212.228 297.958 211.948 297.79 211.614L296.587 209.293L288.926 209.736L287.94 212.175C287.812 212.533 287.578 212.845 287.269 213.07C286.98 213.273 286.637 213.389 286.283 213.404C285.749 213.436 285.221 213.275 284.795 212.952C284.584 212.806 284.409 212.614 284.284 212.391C284.16 212.167 284.088 211.919 284.075 211.663C284.061 211.36 284.115 211.058 284.232 210.778L289.735 197.649C289.905 197.227 290.201 196.867 290.583 196.617C290.98 196.369 291.435 196.227 291.904 196.204C292.366 196.172 292.829 196.264 293.245 196.469C293.664 196.665 294.009 196.989 294.231 197.394L301.212 209.844C301.356 210.094 301.444 210.373 301.468 210.66ZM290.178 206.402L294.901 206.127L292.239 201.003L290.178 206.402Z" fill="white"/>
<path d="M303.815 211.388C303.431 211.212 303.094 210.949 302.829 210.621C302.608 210.337 302.475 209.995 302.444 209.637C302.408 209.219 302.535 208.803 302.799 208.477C302.931 208.315 303.096 208.182 303.283 208.089C303.47 207.995 303.675 207.943 303.884 207.936C304.264 207.919 304.643 207.994 304.988 208.152C305.569 208.385 306.174 208.55 306.793 208.644C307.311 208.693 307.833 208.693 308.351 208.644C309.198 208.611 310.029 208.396 310.786 208.015C311.045 207.894 311.261 207.698 311.405 207.452C311.55 207.206 311.616 206.922 311.595 206.638C311.597 206.379 311.543 206.122 311.436 205.886C311.328 205.65 311.171 205.44 310.973 205.271C310.364 204.967 309.671 204.871 309.001 204.996L307.473 205.114C306.936 205.187 306.392 205.049 305.955 204.73C305.777 204.602 305.629 204.437 305.521 204.246C305.414 204.055 305.35 203.844 305.333 203.625C305.316 203.407 305.347 203.188 305.424 202.983C305.5 202.778 305.621 202.592 305.777 202.439C306.164 202.065 306.678 201.851 307.217 201.839L308.272 201.76C308.968 201.763 309.651 201.572 310.244 201.209C310.426 201.051 310.565 200.848 310.646 200.621C310.727 200.393 310.748 200.149 310.707 199.911C310.701 199.66 310.626 199.416 310.49 199.205C310.355 198.993 310.164 198.823 309.938 198.712C309.35 198.466 308.707 198.378 308.075 198.456C307.594 198.489 307.118 198.571 306.655 198.702C306.28 198.82 305.856 198.977 305.383 199.164L304.781 199.429C304.477 199.594 304.141 199.691 303.795 199.715C303.58 199.741 303.362 199.723 303.155 199.66C302.948 199.597 302.756 199.492 302.592 199.351C302.286 199.108 302.087 198.755 302.04 198.367C302.027 198.023 302.113 197.682 302.287 197.384C302.504 197.023 302.809 196.722 303.174 196.509C304.851 195.626 306.703 195.126 308.597 195.043C310.189 194.825 311.808 195.129 313.212 195.909C313.765 196.244 314.228 196.71 314.558 197.266C314.888 197.821 315.076 198.45 315.105 199.095C315.195 199.907 315.015 200.726 314.592 201.426C314.15 202.119 313.497 202.654 312.729 202.95C313.613 203.106 314.428 203.528 315.066 204.16C315.641 204.804 315.972 205.628 316.002 206.49C316.092 207.438 315.848 208.387 315.312 209.175C314.712 210.036 313.887 210.716 312.926 211.142C311.763 211.708 310.5 212.042 309.209 212.125C307.377 212.315 305.527 212.062 303.815 211.388V211.388Z" fill="white"/>
<path d="M328.722 193.558C329.23 193.277 329.798 193.119 330.379 193.096C330.644 193.037 330.919 193.038 331.183 193.1C331.448 193.161 331.695 193.282 331.906 193.452C332.118 193.622 332.288 193.838 332.404 194.083C332.52 194.327 332.579 194.595 332.577 194.866L333.849 207.592C333.893 207.875 333.879 208.163 333.808 208.441C333.737 208.718 333.61 208.978 333.435 209.205C333.047 209.623 332.52 209.885 331.952 209.943C331.384 210.001 330.814 209.85 330.349 209.519C330.131 209.333 329.954 209.105 329.828 208.848C329.703 208.59 329.632 208.31 329.619 208.025L328.771 199.616L323.841 208.86C323.586 209.325 323.286 209.763 322.944 210.168C322.7 210.443 322.396 210.658 322.056 210.798C321.674 210.932 321.277 211.018 320.873 211.054C320.607 211.097 320.335 211.087 320.073 211.024C319.81 210.962 319.563 210.848 319.345 210.69C319.142 210.512 318.978 210.295 318.862 210.051C318.747 209.807 318.683 209.543 318.674 209.274L317.393 196.548C317.352 196.266 317.369 195.979 317.442 195.704C317.515 195.428 317.642 195.17 317.817 194.945C318 194.725 318.226 194.545 318.483 194.416C318.739 194.287 319.019 194.213 319.305 194.198C319.587 194.158 319.873 194.175 320.147 194.247C320.422 194.32 320.679 194.447 320.903 194.62C321.122 194.807 321.3 195.038 321.425 195.297C321.551 195.556 321.622 195.838 321.632 196.125L322.48 204.514L327.706 194.738C327.943 194.268 328.292 193.863 328.722 193.558V193.558Z" fill="white"/>
<path d="M349.981 191.355C350.199 191.536 350.379 191.76 350.509 192.011C350.64 192.263 350.718 192.538 350.74 192.821L352.298 205.35C352.35 205.634 352.344 205.927 352.279 206.209C352.214 206.491 352.092 206.756 351.92 206.99C351.748 207.223 351.531 207.419 351.28 207.565C351.03 207.712 350.753 207.805 350.465 207.841C350.177 207.876 349.885 207.853 349.606 207.772C349.328 207.691 349.069 207.554 348.845 207.369C348.622 207.185 348.438 206.957 348.306 206.699C348.174 206.441 348.096 206.16 348.078 205.871L347.496 201.19L340.732 202.026L341.314 206.717C341.361 206.997 341.352 207.285 341.285 207.562C341.219 207.839 341.098 208.1 340.929 208.329C340.752 208.554 340.529 208.738 340.276 208.872C340.023 209.006 339.745 209.086 339.46 209.106C339.177 209.165 338.885 209.162 338.604 209.096C338.323 209.031 338.06 208.904 337.834 208.726C337.607 208.548 337.422 208.322 337.293 208.065C337.163 207.808 337.092 207.526 337.083 207.238L335.526 194.699C335.468 194.42 335.472 194.131 335.538 193.854C335.603 193.576 335.729 193.316 335.905 193.091C336.081 192.867 336.305 192.683 336.559 192.553C336.814 192.423 337.093 192.35 337.379 192.339C337.659 192.28 337.949 192.283 338.228 192.347C338.507 192.411 338.768 192.535 338.994 192.71C339.22 192.885 339.406 193.107 339.537 193.36C339.669 193.614 339.743 193.893 339.756 194.178L340.308 198.603L347.072 197.767L346.52 193.342C346.472 193.063 346.481 192.777 346.547 192.501C346.613 192.226 346.735 191.966 346.904 191.739C347.083 191.517 347.306 191.334 347.558 191.202C347.811 191.07 348.089 190.992 348.373 190.972C348.653 190.924 348.94 190.933 349.216 190.999C349.493 191.065 349.753 191.186 349.981 191.355V191.355Z" fill="white"/>
<path d="M359.141 205.566C357.813 205.07 356.66 204.194 355.828 203.048C354.958 201.749 354.389 200.273 354.16 198.727C353.932 197.181 354.05 195.604 354.507 194.109C354.964 192.776 355.808 191.609 356.932 190.756C358.196 189.875 359.647 189.3 361.172 189.075C362.696 188.849 364.253 188.98 365.718 189.457C367.04 189.945 368.184 190.819 369.001 191.965C369.871 193.265 370.44 194.741 370.669 196.287C370.897 197.833 370.779 199.41 370.323 200.905C369.863 202.239 369.019 203.409 367.897 204.268C366.642 205.155 365.196 205.735 363.674 205.96C362.153 206.186 360.6 206.051 359.141 205.566V205.566ZM365.925 200.914C366.532 199.672 366.702 198.262 366.408 196.912C366.296 195.539 365.719 194.245 364.771 193.244C364.359 192.865 363.863 192.588 363.323 192.436C362.783 192.284 362.215 192.261 361.665 192.368C361.105 192.424 360.565 192.609 360.089 192.909C359.613 193.21 359.214 193.617 358.924 194.099C358.407 195.366 358.241 196.748 358.442 198.1C358.643 199.453 359.205 200.727 360.068 201.79C360.496 202.15 360.997 202.415 361.536 202.567C362.075 202.72 362.641 202.755 363.195 202.673C363.749 202.59 364.279 202.39 364.75 202.087C365.221 201.784 365.621 201.384 365.925 200.914V200.914Z" fill="white"/>
<path d="M386.75 194.748C387.404 195.404 387.829 196.252 387.962 197.168C388.125 198.008 388.018 198.879 387.657 199.656C387.261 200.445 386.654 201.109 385.902 201.573C384.999 202.129 383.993 202.497 382.944 202.655L376.742 203.717C376.478 203.779 376.204 203.789 375.937 203.745C375.669 203.701 375.413 203.605 375.184 203.461C374.968 203.294 374.789 203.085 374.657 202.847C374.525 202.608 374.442 202.346 374.414 202.075L372.206 189.634C372.132 189.372 372.117 189.097 372.164 188.828C372.21 188.56 372.316 188.305 372.474 188.082C372.632 187.86 372.838 187.675 373.076 187.542C373.315 187.409 373.58 187.331 373.852 187.314L379.818 186.33C381.269 186.014 382.783 186.172 384.137 186.783C384.686 187.054 385.16 187.455 385.519 187.95C385.878 188.445 386.111 189.02 386.197 189.625C386.347 190.416 386.243 191.235 385.902 191.965C385.546 192.698 384.97 193.303 384.255 193.696C385.18 193.764 386.057 194.134 386.75 194.748ZM377.136 193.381L380.193 192.86C380.815 192.798 381.408 192.567 381.908 192.191C382.072 192.024 382.191 191.818 382.253 191.593C382.315 191.368 382.319 191.13 382.263 190.903C382.239 190.661 382.155 190.428 382.019 190.226C381.883 190.023 381.7 189.858 381.484 189.743C380.892 189.534 380.251 189.503 379.64 189.654L376.584 190.175L377.136 193.381ZM383.535 198.79C383.699 198.596 383.814 198.364 383.869 198.116C383.924 197.868 383.918 197.61 383.851 197.364C383.83 197.109 383.749 196.863 383.613 196.645C383.478 196.428 383.292 196.246 383.072 196.115C382.461 195.894 381.797 195.863 381.169 196.027L377.698 196.617L378.299 200.108L381.77 199.518C382.433 199.467 383.063 199.213 383.575 198.79H383.535Z" fill="white"/>
</g>
<defs>
<clipPath id="clip0_291_1315">
<rect width="494" height="235" fill="white"/>
</clipPath>
</defs>
</svg>
