<svg width="140" height="48" viewBox="0 0 140 48" fill="none" xmlns="http://www.w3.org/2000/svg">
<g clip-path="url(#clip0_34609_14250)">
<path d="M108.222 3.05548C107.804 3.15994 107.36 3.23829 106.916 3.31663C106.472 3.39498 106.054 3.44721 105.662 3.49944C104.304 3.70836 103.234 3.89117 102.476 4.04786C101.797 4.17844 101.118 4.38736 100.465 4.64852C99.4731 5.06636 98.6896 5.84982 98.2195 6.81609C97.8278 7.57343 97.5928 8.40913 97.4883 9.27093C97.9584 8.77474 98.5329 8.38301 99.1336 8.06963C100.178 7.57343 101.327 7.31228 102.476 7.3384C103.73 7.31228 104.957 7.65178 106.028 8.30466C107.125 8.93143 108.013 9.81935 108.613 10.9162C109.266 12.0392 109.58 13.3188 109.58 14.6246C109.606 15.9303 109.24 17.21 108.587 18.333C107.934 19.4559 106.968 20.37 105.819 20.9967C104.644 21.6235 103.338 21.9369 102.032 21.9108C100.648 21.9369 99.2903 21.5974 98.0629 20.9445C96.8354 20.2394 95.8692 19.1948 95.2685 17.9412C94.5634 16.5832 94.2239 14.8596 94.2239 12.7965C94.2239 10.655 94.4328 8.85309 94.8768 7.36451C95.2946 5.87594 95.8953 4.70075 96.6787 3.83894C97.41 2.97713 98.3501 2.29813 99.4209 1.88029C100.309 1.51467 101.249 1.20129 102.189 1.01848C103.103 0.835676 104.357 0.600637 105.924 0.339484C106.315 0.287253 106.681 0.235023 107.073 0.156677C107.438 0.104446 107.856 0.0260999 108.222 -0.0522461V3.05548ZM131.099 6.73774C131.856 6.73774 132.587 6.8422 133.319 7.05113C133.998 7.26005 134.624 7.57343 135.199 7.96516C135.538 8.22632 135.852 8.51359 136.113 8.82697V7.05113H139.116V21.6235H136.113V19.8215C135.591 20.4222 134.964 20.8923 134.285 21.2579C133.292 21.7279 132.196 21.9891 131.099 21.963C129.819 21.963 128.566 21.6235 127.443 20.9967C126.32 20.3438 125.38 19.4037 124.727 18.2546C124.048 17.0794 123.682 15.7214 123.708 14.3373C123.682 12.9793 124.048 11.6213 124.727 10.42C125.38 9.29705 126.294 8.38301 127.416 7.73013C128.539 7.07724 129.793 6.73774 131.099 6.73774ZM72.1042 21.6235H69.0226V9.8977H64.3741L63.8256 16.4788C63.6951 18.2807 63.1728 19.6387 62.311 20.5005C61.4491 21.3623 60.2478 21.8063 58.7593 21.7802H57.8975V18.8553H58.3937C59.1771 18.8553 59.7517 18.6202 60.1173 18.124C60.4829 17.6278 60.7179 16.8183 60.8224 15.6692L61.5275 7.05113H72.0781L72.1042 21.6235ZM78.163 11.8825H81.0356C82.1064 11.8564 83.151 12.0653 84.1173 12.4831C84.953 12.8487 85.6319 13.4494 86.1281 14.2067C86.5982 14.9641 86.8333 15.852 86.8333 16.7399C86.8594 17.654 86.6243 18.5419 86.1543 19.2992C85.6581 20.0566 84.953 20.6572 84.1434 20.9967C83.1771 21.4146 82.1064 21.6235 81.0618 21.5974H75.1075V7.05113H78.1891L78.163 11.8825ZM91.8213 21.6235H88.7136V7.05113H91.7952L91.8213 21.6235ZM114.489 13.5538L120.339 7.05113H124.048L117.467 14.1806L124.544 21.6235H120.653L114.489 15.0685V21.6235H111.408V7.05113H114.489V13.5538ZM102.032 10.2111C101.249 10.2111 100.465 10.42 99.7865 10.8117C99.1075 11.2035 98.559 11.7519 98.1412 12.4048C97.7495 13.0838 97.5405 13.8411 97.5667 14.6246C97.5667 15.3819 97.7756 16.1393 98.1412 16.8183C98.5329 17.4973 99.1075 18.0457 99.7865 18.4374C100.465 18.8553 101.249 19.0642 102.032 19.0381C102.816 19.0381 103.573 18.8291 104.252 18.4374C104.931 18.0457 105.48 17.4973 105.845 16.8183C106.237 16.1654 106.472 15.408 106.446 14.6246C106.446 13.8411 106.237 13.0838 105.845 12.4309C105.453 11.7519 104.905 11.2035 104.226 10.8117C103.573 10.42 102.816 10.2111 102.032 10.2111ZM131.49 9.58432C130.655 9.58432 129.845 9.79324 129.14 10.2372C128.435 10.655 127.86 11.2296 127.469 11.9608C127.077 12.692 126.868 13.5277 126.868 14.3634C126.868 15.1991 127.077 16.0348 127.469 16.766C127.86 17.4973 128.435 18.0979 129.14 18.4896C129.845 18.9075 130.655 19.1164 131.49 19.0903C132.326 19.0903 133.136 18.8814 133.841 18.4896C134.546 18.0718 135.121 17.4711 135.538 16.766C135.93 16.0348 136.139 15.1991 136.139 14.3634C136.139 13.5277 135.93 12.692 135.538 11.9608C135.147 11.2296 134.572 10.655 133.841 10.2372C133.136 9.79324 132.326 9.5582 131.49 9.58432ZM78.163 18.9075H80.8528C81.7669 18.9075 82.4981 18.7247 82.9943 18.3591C83.2293 18.1763 83.4383 17.9151 83.5688 17.654C83.6994 17.3667 83.7516 17.0794 83.7255 16.766C83.7516 16.4526 83.6733 16.1654 83.5688 15.8781C83.4383 15.5908 83.2555 15.3558 82.9943 15.173C82.5242 14.8074 81.793 14.6246 80.8528 14.6246H78.163V18.9075Z" fill="#221B1C"/>
<path d="M47.6079 7.0249L52.152 15.7997L56.4871 7.0249H59.7776L50.6634 25.149H47.4251L50.5589 18.9335L44.2129 7.0249H47.6079Z" fill="#221B1C"/>
<path d="M19.8215 28.2048C8.93145 31.4953 1.90642 19.5084 0 7.02525H16.0871V20.6313C17.5756 13.2668 26.1415 6.55518 34.7334 6.55518L25.9325 42.8555H9.42764C10.4723 36.6401 15.2775 31.5998 19.8215 28.2048Z" fill="url(#paint0_linear_34609_14250)"/>
<path d="M55.3382 27.9696C56.6179 27.9696 57.8714 28.3091 58.9421 28.9619C60.0912 29.5887 61.0314 30.5289 61.6842 31.6779C62.3632 32.8792 62.7027 34.2111 62.7027 35.5952C62.7027 36.9794 62.3632 38.3112 61.6842 39.5125C61.0314 40.6616 60.0912 41.6018 58.9421 42.2547C57.8453 42.8814 56.5917 43.2209 55.3382 43.2209C54.2414 43.247 53.1184 43.012 52.126 42.5158C51.4731 42.1763 50.8986 41.7062 50.4024 41.1578V48.0261H47.3208V28.3091H50.3502V30.111C50.8464 29.5365 51.447 29.0664 52.126 28.7269C53.1184 28.2046 54.2414 27.9434 55.3382 27.9696ZM71.582 27.9696C72.3393 27.9696 73.0705 28.074 73.8018 28.2829C74.4808 28.4919 75.1075 28.8052 75.6821 29.197C76.0216 29.4581 76.3349 29.7454 76.5961 30.0588V28.2568H79.5994V42.8292H76.5961V41.0011C76.0738 41.6018 75.447 42.0718 74.768 42.4375C73.7756 42.9075 72.6788 43.1687 71.582 43.1426C70.3023 43.1426 69.0488 42.8031 67.9258 42.1763C66.8028 41.5234 65.8627 40.5572 65.2098 39.4342C64.5308 38.2329 64.1913 36.901 64.1913 35.5169C64.1913 34.1589 64.5308 32.8009 65.2098 31.5996C65.8627 30.4766 66.8028 29.5365 67.9258 28.8836C69.0227 28.3091 70.2762 27.9696 71.582 27.9696ZM128.775 37.9717L136.792 28.2829H139.116V42.8553H136.008V33.1665L127.991 42.8553H125.667V28.2829H128.748L128.775 37.9717ZM54.9204 30.8422C54.0847 30.8422 53.2751 31.0512 52.57 31.4951C51.8649 31.8869 51.2642 32.4875 50.8725 33.2187C50.4546 33.95 50.2457 34.7595 50.2718 35.6214C50.2718 36.457 50.4808 37.2927 50.8725 38.0501C51.2642 38.7552 51.8649 39.3558 52.57 39.7737C53.3012 40.1915 54.1108 40.4005 54.9204 40.3743C55.7561 40.4005 56.5656 40.1915 57.2707 39.7737C57.9759 39.3558 58.5765 38.7552 58.9682 38.0501C59.3861 37.3188 59.595 36.4832 59.5689 35.6214C59.5689 34.7857 59.36 33.95 58.9682 33.2187C58.5765 32.4875 58.002 31.913 57.2707 31.4951C56.5917 31.0512 55.7561 30.8161 54.9204 30.8422ZM71.9737 30.8422C71.138 30.8422 70.3284 31.0512 69.6233 31.4951C68.9182 31.913 68.3437 32.4875 67.9519 33.2187C67.5341 33.95 67.3252 34.7595 67.3513 35.6214C67.3513 36.457 67.5602 37.2927 67.9519 38.0501C68.3437 38.7552 68.9182 39.3558 69.6494 39.7737C70.3545 40.1915 71.1641 40.3743 71.9737 40.3743C72.8094 40.3743 73.619 40.1654 74.3241 39.7737C75.0292 39.3558 75.6037 38.7552 76.0216 38.0501C76.4394 37.3188 76.6483 36.4832 76.6222 35.6214C76.6222 34.7857 76.4133 33.95 76.0216 33.2187C75.6298 32.4875 75.0553 31.913 74.3241 31.4951C73.6451 31.0251 72.8094 30.79 71.9737 30.8422Z" fill="#221B1C"/>
<path d="M100.988 28.2827L105.506 37.0836L109.841 28.3088H113.132L104.017 46.4329H100.779L103.913 40.2174L97.5669 28.3088H100.988V28.2827Z" fill="#221B1C"/>
<path d="M96.0258 40.1654H98.2195V46.4331H95.164V42.9076H84.8223V46.4331H81.793V40.1654C82.1586 40.1654 82.5242 39.8782 82.8637 39.7215C83.2032 39.5648 83.4905 39.3559 83.7516 39.0947C84.2478 38.5202 84.5351 37.7106 84.6134 36.6921L85.3446 28.3091H96.0519L96.0258 40.1654ZM87.5906 36.7705C87.5383 37.5278 87.3816 38.259 87.0944 38.9641C86.9377 39.3298 86.7026 39.8782 86.4154 40.1916H92.9181V31.0773H88.1129L87.5906 36.7705Z" fill="#221B1C"/>
<path d="M117.649 31.1293H124.178V28.2827H114.568V42.8551H117.649V31.1293Z" fill="#221B1C"/>
</g>
<defs>
<linearGradient id="paint0_linear_34609_14250" x1="0" y1="24.7111" x2="40.2226" y2="24.7111" gradientUnits="userSpaceOnUse">
<stop offset="0.228" stop-color="#FF5F59"/>
<stop offset="0.3234" stop-color="#FF645B"/>
<stop offset="0.4401" stop-color="#FF7361"/>
<stop offset="0.568" stop-color="#FF8C6B"/>
<stop offset="0.7037" stop-color="#FFAF79"/>
<stop offset="0.8443" stop-color="#FFDB8B"/>
<stop offset="0.866" stop-color="#FFE28E"/>
</linearGradient>
<clipPath id="clip0_34609_14250">
<rect width="139.116" height="48" fill="white"/>
</clipPath>
</defs>
</svg>
